<svg width="24" height="24" viewBox="0 0 24 24" fill="none" xmlns="http://www.w3.org/2000/svg">
<mask id="mask0_503_19982" style="mask-type:luminance" maskUnits="userSpaceOnUse" x="4" y="14" width="16" height="8">
<path fill-rule="evenodd" clip-rule="evenodd" d="M4 14.4961H19.8399V21.8701H4V14.4961Z" fill="white"/>
</mask>
<g mask="url(#mask0_503_19982)">
<path fill-rule="evenodd" clip-rule="evenodd" d="M11.921 15.9961C7.66 15.9961 5.5 16.7281 5.5 18.1731C5.5 19.6311 7.66 20.3701 11.921 20.3701C16.181 20.3701 18.34 19.6381 18.34 18.1931C18.34 16.7351 16.181 15.9961 11.921 15.9961ZM11.921 21.8701C9.962 21.8701 4 21.8701 4 18.1731C4 14.8771 8.521 14.4961 11.921 14.4961C13.88 14.4961 19.84 14.4961 19.84 18.1931C19.84 21.4891 15.32 21.8701 11.921 21.8701Z" fill="#9E9E9E"/>
</g>
<mask id="mask1_503_19982" style="mask-type:luminance" maskUnits="userSpaceOnUse" x="6" y="2" width="12" height="11">
<path fill-rule="evenodd" clip-rule="evenodd" d="M6.60938 2.00012H17.2294V12.6187H6.60938V2.00012Z" fill="white"/>
</mask>
<g mask="url(#mask1_503_19982)">
<path fill-rule="evenodd" clip-rule="evenodd" d="M11.9204 3.42776C9.77941 3.42776 8.03741 5.16876 8.03741 7.30976C8.03041 9.44376 9.75941 11.1838 11.8914 11.1918L11.9204 11.9058V11.1918C14.0604 11.1918 15.8014 9.44976 15.8014 7.30976C15.8014 5.16876 14.0604 3.42776 11.9204 3.42776ZM11.9204 12.6188H11.8884C8.96641 12.6098 6.59941 10.2268 6.60941 7.30676C6.60941 4.38176 8.99141 1.99976 11.9204 1.99976C14.8484 1.99976 17.2294 4.38176 17.2294 7.30976C17.2294 10.2378 14.8484 12.6188 11.9204 12.6188Z" fill="#9E9E9E"/>
</g>
</svg>
