<svg width="28" height="28" viewBox="0 0 28 28" fill="none" xmlns="http://www.w3.org/2000/svg">
<path d="M20.9086 2.74544C20.9086 3.23102 20.515 3.62466 20.0294 3.62466C19.5438 3.62466 19.1502 3.23102 19.1502 2.74544C19.1502 2.25985 19.5438 1.86621 20.0294 1.86621C20.515 1.86621 20.9086 2.25985 20.9086 2.74544Z" fill="#12D18E"/>
<path d="M18.0365 4.73835C18.0365 5.70952 17.2492 6.49681 16.278 6.49681C15.3068 6.49681 14.5196 5.70952 14.5196 4.73835C14.5196 3.76718 15.3068 2.9799 16.278 2.9799C17.2492 2.9799 18.0365 3.76718 18.0365 4.73835Z" fill="#12D18E"/>
<path fill-rule="evenodd" clip-rule="evenodd" d="M15.1595 8.94935C14.9605 8.88696 14.8421 8.68102 14.8612 8.47333C14.8679 8.40153 14.8712 8.32879 14.8712 8.25526C14.8712 6.96037 13.8215 5.91065 12.5266 5.91065C11.2318 5.91065 10.182 6.96037 10.182 8.25526C10.182 8.58469 9.99873 8.91067 9.68694 9.01702C6.22457 10.1979 3.73438 13.4785 3.73438 17.3406C3.73438 22.1964 7.67081 26.1329 12.5266 26.1329C17.3825 26.1329 21.3189 22.1964 21.3189 17.3406C21.3189 16.8033 21.7436 16.344 22.2267 16.1088C23.0079 15.7285 23.5463 14.9269 23.5463 13.9995C23.5463 12.7047 22.4966 11.6549 21.2017 11.6549C20.7591 11.6549 20.3452 11.7775 19.9921 11.9906C19.8116 12.0995 19.5695 12.0723 19.4392 11.9067C19.3099 11.7425 19.3389 11.5035 19.4845 11.3536C19.8943 10.9314 20.1466 10.3555 20.1466 9.72064C20.1466 8.42575 19.0969 7.37603 17.802 7.37603C16.8735 7.37603 16.071 7.91579 15.6913 8.69865C15.5949 8.8973 15.3702 9.01538 15.1595 8.94935ZM12.5266 22.616C9.61314 22.616 7.25128 20.2541 7.25128 17.3406C7.25128 14.4271 9.61314 12.0652 12.5266 12.0652C15.4401 12.0652 17.802 14.4271 17.802 17.3406C17.802 20.2541 15.4401 22.616 12.5266 22.616Z" fill="#12D18E"/>
<path d="M20.5569 7.2588C21.2044 7.2588 21.7292 6.73394 21.7292 6.0865C21.7292 5.43906 21.2044 4.9142 20.5569 4.9142C19.9095 4.9142 19.3846 5.43906 19.3846 6.0865C19.3846 6.73394 19.9095 7.2588 20.5569 7.2588Z" fill="#12D18E"/>
<path d="M23.2532 5.73481C23.5769 5.73481 23.8394 5.47238 23.8394 5.14866C23.8394 4.82494 23.5769 4.56251 23.2532 4.56251C22.9295 4.56251 22.6671 4.82494 22.6671 5.14866C22.6671 5.47238 22.9295 5.73481 23.2532 5.73481Z" fill="#12D18E"/>
<path d="M23.2532 2.45236C23.2532 2.61422 23.122 2.74544 22.9601 2.74544C22.7983 2.74544 22.6671 2.61422 22.6671 2.45236C22.6671 2.2905 22.7983 2.15929 22.9601 2.15929C23.122 2.15929 23.2532 2.2905 23.2532 2.45236Z" fill="#12D18E"/>
<path d="M22.6671 11.0102C23.4764 11.0102 24.1324 10.3541 24.1324 9.54479C24.1324 8.73549 23.4764 8.07941 22.6671 8.07941C21.8578 8.07941 21.2017 8.73549 21.2017 9.54479C21.2017 10.3541 21.8578 11.0102 22.6671 11.0102Z" fill="#12D18E"/>
</svg>