<svg width="28" height="28" viewBox="0 0 28 28" fill="none" xmlns="http://www.w3.org/2000/svg">
<path d="M18.904 9.22019C18.9742 9.28982 18.9701 9.30994 18.9705 9.40569C18.9665 9.60245 18.9053 9.77153 18.8338 9.95325C18.7767 10.099 18.7406 10.2509 18.7015 10.402C18.6737 10.5044 18.6737 10.5044 18.6459 10.5821C18.601 10.7233 18.5737 10.8677 18.5442 11.0127C18.5319 11.0723 18.5196 11.132 18.5073 11.1916C18.4984 11.2347 18.4984 11.2347 18.4894 11.2787C18.474 11.3519 18.4577 11.4249 18.4408 11.4978C18.4165 11.6055 18.3986 11.713 18.3841 11.8225C18.3773 11.8716 18.3773 11.8716 18.3705 11.9218C18.3297 12.2774 18.3237 12.6306 18.3245 12.988C18.3247 13.0707 18.3245 13.1534 18.3244 13.2361C18.3242 13.5673 18.3308 13.8956 18.3679 14.2251C18.403 14.5603 18.2367 14.8588 18.1052 15.159C18.0015 15.397 17.912 15.6395 17.8246 15.8837C17.7555 16.0765 17.685 16.2681 17.6074 16.4577C17.5618 16.5705 17.5196 16.6846 17.4773 16.7987C17.469 16.8211 17.4606 16.8435 17.452 16.8666C17.4027 16.9995 17.3559 17.1329 17.3115 17.2675C17.2925 17.3234 17.272 17.3785 17.2507 17.4336C17.2133 17.5301 17.1815 17.6277 17.1499 17.7261C17.1303 17.7827 17.1106 17.8392 17.0906 17.8956C17.0844 17.9155 17.0782 17.9354 17.0718 17.9559C17.0154 18.0921 16.9174 18.1289 16.7847 18.1863C16.7143 18.214 16.6435 18.2403 16.5724 18.2666C16.5262 18.2855 16.48 18.3045 16.4339 18.3236C15.5601 18.6662 14.6475 18.9384 13.7399 19.1772C13.5991 19.2145 13.4608 19.2556 13.323 19.3021C13.2302 19.3331 13.1366 19.3611 13.0427 19.3884C13.0224 19.3944 13.0021 19.4003 12.9812 19.4064C12.7701 19.4673 12.5573 19.5218 12.3442 19.5752C12.1979 19.6122 12.0546 19.6532 11.9118 19.7017C11.8194 19.7329 11.7259 19.7607 11.6323 19.788C11.6119 19.7939 11.5915 19.7999 11.5705 19.806C11.3605 19.8666 11.1489 19.9202 10.9371 19.9743C10.7666 20.0181 10.5982 20.0657 10.4302 20.1184C10.0747 20.2266 9.715 20.3218 9.35546 20.4158C9.33395 20.4214 9.31244 20.427 9.29028 20.4328C9.18431 20.4605 9.0783 20.4881 8.97225 20.5154C8.73075 20.578 8.49171 20.6463 8.25366 20.7208C7.95833 20.8111 7.66035 20.8777 7.35849 20.9429C7.15667 20.9868 6.95833 21.0346 6.76046 21.0937C6.65669 21.1244 6.55218 21.152 6.44743 21.1792C6.33094 21.2095 6.21623 21.2413 6.10201 21.2791C5.94441 21.3272 5.78306 21.3477 5.62036 21.3716C5.43719 21.399 5.25781 21.436 5.07742 21.4775C4.9065 21.5164 4.73495 21.5479 4.56185 21.5758C4.43596 21.5965 4.31689 21.6259 4.19503 21.6625C4.4282 21.6675 4.65589 21.6535 4.88766 21.6286C4.92247 21.6249 4.95728 21.6212 4.99315 21.6174C5.3281 21.5794 5.657 21.5186 5.98689 21.4505C6.05603 21.4363 6.12524 21.4225 6.19455 21.409C6.29574 21.3894 6.39679 21.3692 6.4978 21.3486C6.51636 21.3449 6.53492 21.3411 6.55405 21.3372C6.61089 21.3257 6.66768 21.314 6.72448 21.3022C6.75765 21.2954 6.79082 21.2886 6.825 21.2815C6.89817 21.2705 6.89817 21.2705 6.92957 21.2345C6.98991 21.222 7.05056 21.2111 7.11127 21.2006C7.34608 21.1586 7.57951 21.1106 7.8129 21.0615C7.84829 21.0541 7.88368 21.0468 7.92015 21.0392C7.97053 21.0285 7.97053 21.0285 8.02192 21.0176C8.05201 21.0113 8.08209 21.005 8.11308 20.9985C8.19264 20.9785 8.26398 20.9508 8.34002 20.9206C8.39176 20.9081 8.44382 20.8969 8.49608 20.8868C8.52562 20.8809 8.55516 20.875 8.58559 20.869C8.6469 20.8571 8.70822 20.8452 8.76954 20.8333C8.92721 20.802 9.07743 20.7652 9.22907 20.7122C9.33086 20.6788 9.43509 20.6584 9.53998 20.637C9.73399 20.5959 9.92349 20.5467 10.1138 20.4907C10.2158 20.4626 10.3178 20.4405 10.4215 20.4194C10.5294 20.3974 10.6328 20.3745 10.7363 20.3373C10.8657 20.2913 10.998 20.2641 11.1321 20.2357C11.285 20.2032 11.4322 20.1684 11.5793 20.1153C11.6831 20.0827 11.7888 20.0598 11.8949 20.0359C12.0427 20.0025 12.1858 19.9663 12.3286 19.9155C12.4274 19.884 12.5281 19.8604 12.6289 19.8361C12.7504 19.8069 12.8708 19.7776 12.9887 19.7362C13.1067 19.6949 13.2271 19.6656 13.3485 19.6364C13.4933 19.6014 13.6352 19.5636 13.7756 19.5142C13.8784 19.4803 13.9836 19.4553 14.0887 19.4294C14.1593 19.412 14.1593 19.412 14.2121 19.351C14.2764 19.3365 14.3413 19.3244 14.4064 19.3135C14.5959 19.2795 14.7689 19.2239 14.9495 19.1565C15.0417 19.1245 15.1312 19.1017 15.2267 19.0817C15.4075 19.0435 15.5786 18.9863 15.7529 18.9266C15.8902 18.8801 16.024 18.8431 16.1682 18.8236C16.2308 18.811 16.2308 18.811 16.2916 18.7681C16.3945 18.7098 16.4949 18.6898 16.6102 18.6661C16.8023 18.6259 16.9791 18.5729 17.1589 18.4931C17.2301 18.4679 17.2952 18.4545 17.3694 18.4414C17.4997 18.4171 17.6125 18.3751 17.7342 18.3239C17.8453 18.2818 17.9594 18.2569 18.075 18.2298C18.1609 18.2081 18.2407 18.1796 18.3229 18.1472C18.4366 18.1051 18.5532 18.0722 18.6693 18.0374C18.7421 18.0152 18.8141 17.9917 18.886 17.9669C19.0015 17.928 19.1188 17.8974 19.2368 17.867C19.3674 17.8334 19.494 17.7966 19.6192 17.7467C19.7058 17.7155 19.794 17.6918 19.8827 17.6673C20.0096 17.632 20.1324 17.5941 20.2551 17.5464C20.3771 17.5015 20.5023 17.4662 20.6269 17.429C20.6976 17.4078 20.7682 17.3863 20.8387 17.3647C21.1427 17.2723 21.4471 17.1818 21.7536 17.0977C21.8821 17.062 22.0067 17.0218 22.1312 16.9741C22.2165 16.9422 22.3034 16.9161 22.3905 16.8896C22.4309 16.8773 22.4713 16.8649 22.5116 16.8525C22.5332 16.8459 22.5547 16.8393 22.5769 16.8325C22.7309 16.7849 22.8845 16.7361 23.0382 16.6874C23.1691 16.646 23.3 16.6049 23.4312 16.5646C23.7419 16.4693 23.7419 16.4693 24.0456 16.3543C24.1289 16.3198 24.2131 16.2882 24.2975 16.2565C25.1267 15.9457 25.1267 15.9457 25.7259 15.3272C25.6994 15.3427 25.6994 15.3427 25.6723 15.3584C25.649 15.3717 25.6258 15.3849 25.6018 15.3986C25.5788 15.4118 25.5557 15.425 25.532 15.4387C25.4669 15.4699 25.4669 15.4699 25.3805 15.4699C25.3805 15.4887 25.3805 15.5076 25.3805 15.527C25.0966 15.6619 24.8103 15.7845 24.517 15.898C24.4696 15.9169 24.4222 15.936 24.3749 15.955C23.4762 16.3097 23.4762 16.3097 23.2217 16.2975C23.1099 16.0071 23.0252 15.7218 22.9596 15.4177C22.9272 15.2713 22.8888 15.131 22.8391 14.9895C22.8054 14.8873 22.7826 14.7829 22.7593 14.678C22.7242 14.5181 22.7242 14.5181 22.6715 14.3633C22.6359 14.2748 22.6423 14.1943 22.646 14.1001C22.9809 13.9797 23.3559 14.0099 23.708 14.0108C23.7866 14.0109 23.8653 14.0108 23.944 14.0106C24.7083 14.0102 25.6283 14.0769 26.2261 14.6031C26.4268 14.8173 26.4644 15.0849 26.4633 15.3684C26.4443 15.8302 26.2847 16.2934 26.1289 16.7255C26.104 16.7986 26.0796 16.8717 26.0552 16.9449C26.0433 16.9802 26.0313 17.0156 26.0191 17.0519C25.9976 17.1161 25.9763 17.1803 25.9554 17.2446C25.8994 17.416 25.8358 17.5819 25.7647 17.7477C25.5837 18.1717 25.4228 18.6039 25.2654 19.0371C25.2464 19.0371 25.2274 19.0371 25.2078 19.0371C25.197 19.092 25.197 19.092 25.1859 19.148C25.1525 19.2968 25.0994 19.4334 25.0405 19.5739C25.0302 19.5989 25.02 19.6239 25.0094 19.6497C24.9431 19.8106 24.8752 19.9709 24.8072 20.1312C24.7647 20.2348 24.7267 20.3399 24.6887 20.4452C24.4596 21.0706 24.2397 21.4987 23.6104 21.7956C23.4308 21.8748 23.2536 21.9397 23.0629 21.9867C22.9982 22.0032 22.9372 22.0233 22.8745 22.046C22.6835 22.1109 22.4842 22.147 22.2871 22.1888C22.2072 22.2063 22.1277 22.2252 22.0481 22.244C21.7795 22.3056 21.5084 22.3547 21.2373 22.4045C21.1958 22.4121 21.1958 22.4121 21.1534 22.42C20.7883 22.487 20.424 22.5485 20.0554 22.5933C19.8841 22.6151 19.7132 22.64 19.5422 22.6644C19.4761 22.6738 19.41 22.6832 19.3439 22.6925C19.1479 22.7202 18.9519 22.7482 18.7561 22.7775C18.3291 22.8408 17.9018 22.8892 17.4724 22.9324C17.1867 22.9614 16.9021 22.9944 16.6174 23.0323C15.5839 23.1682 14.5439 23.2504 13.5054 23.3378C13.4118 23.3458 13.3182 23.3538 13.2246 23.3619C12.3582 23.4364 11.4913 23.4903 10.623 23.5373C10.5911 23.539 10.5911 23.539 10.5586 23.5407C10.4585 23.5462 10.3584 23.5516 10.2583 23.5568C10.2226 23.5587 10.1868 23.5606 10.15 23.5626C10.1193 23.5642 10.0885 23.5659 10.0568 23.5675C9.97104 23.5733 9.88575 23.5805 9.80015 23.5886C9.26673 23.6375 8.7304 23.6359 8.19519 23.6354C8.12222 23.6354 8.04925 23.6354 7.97627 23.6355C7.8052 23.6355 7.63414 23.6354 7.46307 23.6353C7.32803 23.6352 7.19298 23.6352 7.05793 23.6353C6.86923 23.6355 6.68052 23.6355 6.49181 23.6354C6.42085 23.6354 6.3499 23.6354 6.27894 23.6355C5.65032 23.636 5.0254 23.6201 4.40012 23.5531C4.37688 23.5507 4.35364 23.5482 4.3297 23.5457C2.57291 23.3584 2.57291 23.3584 2.09375 22.804C1.90863 22.5069 1.84823 22.2219 1.91025 21.8766C1.96984 21.648 2.08082 21.4348 2.28231 21.3028C2.58275 21.1332 2.89134 21.0037 3.21736 20.8901C3.63474 20.74 4.10811 20.5199 4.4578 20.2445C4.51166 20.2071 4.51166 20.2071 4.59801 20.2071C4.60751 20.1789 4.61701 20.1506 4.6268 20.1215C4.67655 20.0927 4.72642 20.0639 4.77724 20.037C4.84369 19.9984 4.89102 19.9487 4.94343 19.8932C5.04829 19.8076 5.04829 19.8076 5.11614 19.8076C5.11614 19.7888 5.11614 19.7699 5.11614 19.7505C5.15662 19.7163 5.15662 19.7163 5.21688 19.6738C5.53085 19.439 5.90472 19.1343 6.1236 18.8088C6.1426 18.8088 6.1616 18.8088 6.18117 18.8088C6.18855 18.7923 6.19594 18.7759 6.20354 18.7589C6.24217 18.6884 6.28631 18.6376 6.34128 18.5787C6.52648 18.3758 6.70153 18.1694 6.85086 17.9391C6.92951 17.8256 7.01659 17.7189 7.1035 17.6116C7.2195 17.4677 7.32123 17.3178 7.41531 17.159C7.48457 17.0436 7.55751 16.9317 7.63322 16.8205C7.69883 16.7231 7.7618 16.6241 7.82493 16.5251C7.86182 16.4677 7.89908 16.4104 7.9367 16.3534C8.12297 16.0705 8.29542 15.78 8.46768 15.4886C8.52817 15.3869 8.58962 15.2857 8.65123 15.1847C8.6859 15.1282 8.6859 15.1282 8.71422 15.0704C8.73322 15.0704 8.75221 15.0704 8.77179 15.0704C8.78247 15.0338 8.78247 15.0338 8.79338 14.9965C8.8324 14.8909 8.88328 14.8064 8.9445 14.7119C9.0139 14.6045 9.07037 14.5039 9.1172 14.3855C9.15497 14.3468 9.19338 14.3088 9.23234 14.2713C9.24778 14.2454 9.26321 14.2195 9.27912 14.1928C9.29871 14.1611 9.29871 14.1611 9.3187 14.1286C9.33769 14.1286 9.35669 14.1286 9.37627 14.1286C9.3828 14.1097 9.38933 14.0907 9.39605 14.0712C9.44527 13.9601 9.50979 13.8636 9.57776 13.763C9.59724 13.7333 9.59724 13.7333 9.61711 13.7031C9.65036 13.6536 9.68586 13.6056 9.72168 13.5579C9.74068 13.5579 9.75968 13.5579 9.77925 13.5579C9.78634 13.5377 9.79342 13.5174 9.80073 13.4966C9.8415 13.4046 9.89226 13.3345 9.95376 13.2547C9.96512 13.2399 9.97649 13.2251 9.9882 13.2098C10.0875 13.0814 10.1909 12.9564 10.2951 12.8319C10.3648 12.7468 10.4298 12.659 10.4934 12.5694C10.5047 12.5566 10.516 12.5438 10.5277 12.5305C10.5466 12.5305 10.5656 12.5305 10.5852 12.5305C10.5936 12.5015 10.5936 12.5015 10.6022 12.4719C10.6584 12.3554 10.7413 12.2763 10.8317 12.1845C10.9784 12.0325 11.117 11.8788 11.2483 11.7134C11.3593 11.5808 11.4878 11.4658 11.6161 11.3498C11.6313 11.336 11.6466 11.3221 11.6624 11.3079C11.7816 11.2001 11.9021 11.0939 12.0245 10.9895C12.0462 10.9709 12.0462 10.9709 12.0683 10.952C12.8562 10.2772 13.6865 9.69193 14.6152 9.22081C14.6734 9.19125 14.7315 9.16136 14.7896 9.13146C14.8261 9.11285 14.8627 9.09427 14.8993 9.07572C14.9313 9.0595 14.9633 9.04328 14.9962 9.02656C15.0756 8.99189 15.0756 8.99189 15.162 8.99189C15.162 8.97306 15.162 8.95422 15.162 8.93482C15.5043 8.83543 15.8464 8.73642 16.1964 8.66728C16.2186 8.66286 16.2409 8.65843 16.2638 8.65388C17.224 8.47256 18.1172 8.63807 18.904 9.22019ZM3.90718 21.6911C3.90718 21.7005 3.90718 21.7099 3.90718 21.7196C3.95468 21.7196 4.00217 21.7196 4.0511 21.7196C4.0511 21.7102 4.0511 21.7008 4.0511 21.6911C4.00361 21.6911 3.95612 21.6911 3.90718 21.6911Z" fill="#12D18E"/>
<path d="M26.2696 2.91086C26.3731 2.98734 26.434 3.07874 26.4742 3.19835C26.5047 3.46819 26.441 3.73807 26.3913 4.00205C26.377 4.07794 26.3632 4.1539 26.3494 4.22988C26.3405 4.27862 26.3315 4.32735 26.3224 4.37608C26.3163 4.40979 26.3163 4.40979 26.31 4.44419C26.2869 4.56577 26.256 4.67926 26.2152 4.79645C26.2104 4.82941 26.2057 4.86237 26.2008 4.89633C26.1867 4.99409 26.1608 5.07409 26.1288 5.16744C26.1074 5.24892 26.0872 5.33068 26.067 5.41246C26.0167 5.61225 25.9626 5.8111 25.9074 6.00962C25.8701 6.1441 25.8338 6.27871 25.7998 6.41406C25.5697 7.32746 25.5697 7.32746 25.1789 7.59312C25.1599 7.59312 25.1409 7.59312 25.1214 7.59312C25.1214 7.61195 25.1214 7.63079 25.1214 7.6502C25.0622 7.69345 25.0622 7.69345 24.981 7.74294C24.952 7.76078 24.9229 7.77862 24.893 7.79701C24.8164 7.84295 24.7396 7.88849 24.6626 7.93379C24.4123 8.08173 24.1714 8.24352 23.9412 8.42071C23.9734 8.45923 23.9734 8.45923 24.0564 8.45067C24.1133 8.44936 24.1133 8.44936 24.1712 8.44802C24.2127 8.44738 24.2542 8.44677 24.2957 8.44618C24.3614 8.44512 24.427 8.44389 24.4926 8.4422C24.5558 8.44065 24.619 8.43981 24.6822 8.4391C24.7391 8.43793 24.7391 8.43793 24.7972 8.43674C24.8911 8.44924 24.8911 8.44924 24.9468 8.50038C25.029 8.66941 24.9663 8.87612 24.9253 9.05031C24.9205 9.07211 24.9157 9.09391 24.9108 9.11636C24.8794 9.25378 24.8343 9.37611 24.7759 9.50513C24.7567 9.56139 24.7381 9.61787 24.7202 9.67457C24.6801 9.79653 24.6337 9.90707 24.573 10.02C24.524 10.1202 24.4921 10.2264 24.4593 10.3327C24.4403 10.3327 24.4213 10.3327 24.4017 10.3327C24.395 10.356 24.3882 10.3793 24.3812 10.4033C24.3365 10.5249 24.2771 10.6324 24.2128 10.7447C24.2001 10.7672 24.1874 10.7896 24.1742 10.8128C24.011 11.0992 23.8467 11.3852 23.6523 11.6522C23.6055 11.7176 23.56 11.7834 23.5149 11.85C23.5007 11.8709 23.4864 11.8919 23.4717 11.9135C23.4432 11.9555 23.4148 11.9976 23.3865 12.0398C23.3522 12.0901 23.3158 12.139 23.2791 12.1877C23.2601 12.1877 23.2412 12.1877 23.2216 12.1877C23.2149 12.203 23.2083 12.2183 23.2015 12.2341C23.1529 12.3218 23.0904 12.3953 23.0255 12.4712C23.0071 12.4932 23.0071 12.4932 22.9883 12.5156C22.8543 12.6738 22.7069 12.812 22.5487 12.9457C22.5315 12.9603 22.5142 12.9748 22.4965 12.9899C22.3639 13.1013 22.2303 13.2115 22.0954 13.3202C22.0773 13.335 22.0593 13.3497 22.0407 13.3649C21.9101 13.4692 21.9101 13.4692 21.836 13.4849C21.8183 13.49 21.8006 13.4951 21.7823 13.5004C21.7728 13.5286 21.7633 13.5569 21.7536 13.586C21.6979 13.6258 21.6979 13.6258 21.6258 13.6662C21.5997 13.6812 21.5735 13.6961 21.5466 13.7115C21.5199 13.7266 21.4932 13.7417 21.4657 13.7572C21.4189 13.785 21.3721 13.813 21.3254 13.841C21.2762 13.8702 21.2271 13.8993 21.1779 13.9284C21.1516 13.944 21.1253 13.9596 21.0981 13.9756C21.01 14.0272 20.9214 14.0779 20.8325 14.1282C20.8022 14.1455 20.772 14.1628 20.7408 14.1806C20.4193 14.3579 20.0814 14.4949 19.7416 14.6337C19.6602 14.6671 19.5792 14.7013 19.4984 14.7358C19.4543 14.7545 19.4103 14.7731 19.3662 14.7917C19.3465 14.8002 19.3268 14.8088 19.3065 14.8176C19.1727 14.8734 19.1727 14.8734 19.0766 14.8416C19.093 14.704 19.1342 14.5984 19.1953 14.4742C19.2137 14.4364 19.232 14.3986 19.2502 14.3607C19.2596 14.3413 19.269 14.3219 19.2786 14.3018C19.3249 14.2044 19.3681 14.1057 19.4112 14.0069C19.4658 13.8821 19.5209 13.7577 19.5785 13.6341C19.6859 13.4019 19.7833 13.1653 19.8826 12.9296C19.9016 12.9296 19.9206 12.9296 19.9401 12.9296C19.9457 12.8984 19.9457 12.8984 19.9514 12.8666C19.9951 12.6677 20.0906 12.484 20.1838 12.3038C20.2299 12.2124 20.2737 12.1201 20.3173 12.0275C20.4208 11.808 20.5291 11.5925 20.6452 11.3794C20.7343 11.2144 20.8152 11.0461 20.8954 10.8767C21.137 10.3688 21.4102 9.87567 21.696 9.39098C21.713 9.36199 21.73 9.333 21.7475 9.30314C21.781 9.24613 21.8145 9.18917 21.8481 9.13225C21.8815 9.07564 21.9147 9.01894 21.9477 8.96214C22.0604 8.76882 22.1784 8.57977 22.3005 8.39217C22.3347 8.33929 22.3689 8.28638 22.403 8.23343C22.4195 8.2079 22.436 8.18237 22.4529 8.15607C22.5175 8.05367 22.5782 7.94926 22.6384 7.84427C22.6503 7.82731 22.6623 7.81035 22.6747 7.79288C22.6937 7.79288 22.7127 7.79288 22.7322 7.79288C22.7398 7.77243 22.7474 7.75198 22.7552 7.7309C22.791 7.64742 22.8336 7.57642 22.8834 7.50037C22.9012 7.47289 22.9191 7.44541 22.9374 7.4171C22.9706 7.36728 23.0044 7.31778 23.0389 7.26884C23.1653 7.08928 23.2791 6.90363 23.2791 6.67992C22.9429 6.8147 22.733 7.0584 22.5191 7.34097C22.4963 7.3669 22.4963 7.3669 22.4732 7.39336C22.4542 7.39336 22.4352 7.39336 22.4156 7.39336C22.4088 7.41326 22.402 7.43316 22.395 7.45367C22.3509 7.55194 22.2931 7.6276 22.2267 7.71262C22.1409 7.81936 22.1409 7.81936 22.0702 7.93557C22.0512 7.93557 22.0322 7.93557 22.0126 7.93557C22.0061 7.95422 21.9996 7.97287 21.9928 7.99209C21.9426 8.10674 21.8779 8.20964 21.8111 8.31547C21.7917 8.34718 21.7917 8.34718 21.7718 8.37952C21.7592 8.39947 21.7467 8.41943 21.7338 8.43999C21.7224 8.45821 21.711 8.47643 21.6993 8.49521C21.6887 8.50829 21.6781 8.52138 21.6672 8.53486C21.6482 8.53486 21.6292 8.53486 21.6096 8.53486C21.6037 8.55781 21.5978 8.58077 21.5916 8.60442C21.549 8.71401 21.493 8.79673 21.4261 8.89291C21.3637 8.98637 21.311 9.08375 21.2577 9.18252C21.1925 9.30307 21.1259 9.42287 21.0591 9.54259C21.047 9.56442 21.035 9.58625 21.0225 9.60874C20.9546 9.73041 20.8819 9.8462 20.8037 9.96173C20.7811 10.0034 20.7595 10.0457 20.7389 10.0884C20.6766 10.215 20.6103 10.339 20.5428 10.4629C20.47 10.5968 20.4007 10.7304 20.3427 10.8714C20.3143 10.932 20.3143 10.932 20.2633 11.0192C20.1819 11.1584 20.1139 11.3039 20.0445 11.4492C20.0305 11.4783 20.0166 11.5073 20.0023 11.5372C19.8271 11.8851 19.8271 11.8851 19.6811 12.2447C19.6621 12.2447 19.6431 12.2447 19.6235 12.2447C19.6207 12.2687 19.6179 12.2927 19.6151 12.3174C19.5921 12.4285 19.5497 12.5221 19.4994 12.6228C19.4809 12.6609 19.4625 12.699 19.4442 12.7371C19.4353 12.7555 19.4265 12.7738 19.4174 12.7927C19.3762 12.8801 19.3409 12.9695 19.3056 13.0594C19.2297 13.2523 19.1484 13.4428 19.0604 13.6306C18.9998 13.7607 18.9498 13.8924 18.9037 14.0281C18.8728 14.1054 18.8336 14.1723 18.7887 14.2423C18.7507 14.2329 18.7128 14.2235 18.6736 14.2138C18.6506 14.0678 18.6367 13.9229 18.6291 13.7753C18.6279 13.752 18.6267 13.7288 18.6254 13.7048C18.612 13.4194 18.6096 13.134 18.6091 12.8483C18.6088 12.7555 18.6079 12.6628 18.607 12.57C18.604 11.9756 18.668 11.3968 18.8031 10.8179C18.8117 10.7793 18.8203 10.7407 18.8289 10.7021C18.8725 10.5083 18.9233 10.3201 18.9902 10.133C19.0072 10.0771 19.024 10.0212 19.0406 9.9653C19.1818 9.50782 19.3557 9.0564 19.5754 8.63039C19.6222 8.53749 19.6665 8.44378 19.7104 8.34953C19.7964 8.16519 19.8846 7.99123 19.9977 7.82142C20.0273 7.76476 20.0564 7.70783 20.0841 7.6502C20.103 7.6502 20.122 7.6502 20.1416 7.6502C20.1482 7.62687 20.1547 7.60355 20.1614 7.57952C20.2079 7.45571 20.2721 7.35125 20.3431 7.23997C20.3561 7.21896 20.3691 7.19796 20.3825 7.17632C20.395 7.15649 20.4076 7.13666 20.4205 7.11623C20.4319 7.09819 20.4433 7.08015 20.455 7.06157C20.4656 7.04863 20.4761 7.0357 20.487 7.02237C20.506 7.02237 20.525 7.02237 20.5446 7.02237C20.5511 7.00313 20.5577 6.98389 20.5644 6.96407C20.6126 6.8563 20.6768 6.76636 20.7461 6.671C20.7591 6.65259 20.7721 6.63418 20.7855 6.61521C20.8188 6.56905 20.8542 6.52445 20.89 6.48016C20.909 6.48016 20.928 6.48016 20.9476 6.48016C20.9537 6.46033 20.9598 6.4405 20.9661 6.42008C21.0159 6.31475 21.0884 6.23997 21.1689 6.15733C21.2005 6.12421 21.232 6.09106 21.2635 6.05789C21.2787 6.04206 21.2938 6.02622 21.3095 6.0099C21.3587 5.95791 21.4062 5.90459 21.4531 5.85055C21.5394 5.75192 21.6272 5.65472 21.7158 5.55804C21.7291 5.54331 21.7425 5.52857 21.7563 5.51339C21.8125 5.4523 21.8667 5.39719 21.934 5.34814C21.9925 5.3108 21.9925 5.3108 22.0126 5.22451C22.053 5.1975 22.0934 5.17066 22.1346 5.145C22.2315 5.07881 22.3132 4.99496 22.3976 4.91417C22.5405 4.77755 22.6867 4.6551 22.8474 4.53961C22.8764 4.51787 22.9054 4.49613 22.9353 4.47373C23.2367 4.24816 23.5465 4.03691 23.8617 3.83089C23.906 3.80182 23.9502 3.77244 23.9943 3.74302C24.1991 3.60909 24.4144 3.5023 24.6347 3.39625C24.7134 3.358 24.7914 3.31819 24.8695 3.27861C25.94 2.75083 25.94 2.75083 26.2696 2.91086Z" fill="#12D18E"/>
<path d="M22.2191 13.5691C22.2365 13.5747 22.254 13.5803 22.272 13.586C22.2768 13.6054 22.2816 13.6248 22.2865 13.6448C22.3085 13.734 22.3308 13.8232 22.353 13.9124C22.3605 13.9429 22.368 13.9734 22.3757 14.0049C22.4149 14.1615 22.4581 14.3142 22.5113 14.4666C22.5457 14.5732 22.5677 14.6823 22.5904 14.7917C22.5997 14.8359 22.609 14.88 22.6184 14.9242C22.6224 14.9433 22.6264 14.9624 22.6305 14.9822C22.6455 15.0439 22.6455 15.0439 22.6745 15.1099C22.7057 15.1889 22.7228 15.2638 22.7389 15.3471C22.7449 15.3779 22.751 15.4087 22.7572 15.4405C22.7633 15.4724 22.7694 15.5044 22.7757 15.5373C22.8195 15.7752 22.8195 15.7752 22.8799 16.0094C22.9182 16.1419 22.9238 16.2744 22.9341 16.4112C22.7257 16.5231 22.516 16.6023 22.29 16.6716C22.2599 16.6812 22.2297 16.6907 22.1987 16.7005C22.0188 16.7567 21.8382 16.8058 21.6547 16.849C21.5911 16.8653 21.5322 16.8845 21.4714 16.9089C21.3465 16.9582 21.2175 16.9898 21.0875 17.0233C20.9346 17.0628 20.784 17.108 20.6332 17.155C20.5484 17.1807 20.4633 17.2039 20.3776 17.2263C20.2896 17.2496 20.205 17.2748 20.1204 17.3084C19.9916 17.3587 19.858 17.3906 19.7243 17.4249C19.6311 17.449 19.5404 17.4742 19.4511 17.5099C19.3252 17.5603 19.1938 17.5909 19.0626 17.6245C18.9652 17.6498 18.8703 17.6768 18.7765 17.7133C18.5838 17.787 18.42 17.8169 18.2134 17.8096C18.2292 17.6791 18.2542 17.562 18.2997 17.4386C18.3187 17.4386 18.3377 17.4386 18.3573 17.4386C18.3597 17.4133 18.3621 17.388 18.3645 17.3619C18.3943 17.1543 18.4674 16.9501 18.5444 16.7555C18.5984 16.6183 18.6349 16.4761 18.6748 16.3344C18.6958 16.2634 18.7181 16.1961 18.7459 16.1276C18.7879 16.0228 18.8149 15.9158 18.843 15.8066C18.9958 15.2322 18.9958 15.2322 19.1597 15.1146C19.3093 15.0319 19.4712 14.9734 19.6309 14.9128C19.7553 14.8649 19.8729 14.8062 19.9914 14.7456C20.1034 14.6895 20.217 14.6372 20.3308 14.5848C20.5015 14.5063 20.6671 14.4228 20.8299 14.3289C20.8904 14.2995 20.8904 14.2995 20.9767 14.2995C20.9767 14.2806 20.9767 14.2618 20.9767 14.2424C21.0228 14.2184 21.069 14.1947 21.1152 14.171C21.1409 14.1578 21.1667 14.1446 21.1932 14.1309C21.2646 14.0997 21.2646 14.0997 21.3509 14.0997C21.3509 14.0809 21.3509 14.062 21.3509 14.0426C21.3797 14.0276 21.3797 14.0276 21.409 14.0122C21.6425 13.8882 21.8689 13.755 22.0831 13.6003C22.1569 13.5575 22.1569 13.5575 22.2191 13.5691Z" fill="#12D18E"/>
<path d="M6.15247 21.2057C6.15247 21.2245 6.15247 21.2433 6.15247 21.2627C6.00153 21.3126 5.87979 21.3253 5.7207 21.3198C5.74949 21.2627 5.74949 21.2627 5.80391 21.2447C5.92158 21.2203 6.03147 21.1979 6.15247 21.2057Z" fill="#12D18E"/>
<path d="M3.79222 21.6622C3.80172 21.681 3.81121 21.6998 3.821 21.7192C3.75176 21.7536 3.7073 21.7506 3.6303 21.7496C3.59502 21.7492 3.59502 21.7492 3.55902 21.7488C3.53197 21.7483 3.53197 21.7483 3.50437 21.7478C3.49487 21.7289 3.48537 21.7101 3.47559 21.6907C3.58308 21.6656 3.68191 21.6596 3.79222 21.6622Z" fill="#12D18E"/>
<path d="M7.13116 17.5815C7.15015 17.591 7.16915 17.6004 7.18873 17.6101C7.14915 17.6814 7.14915 17.6814 7.10237 17.7528C7.08337 17.7528 7.06438 17.7528 7.0448 17.7528C7.03323 17.7872 7.03323 17.7872 7.02141 17.8223C7.00449 17.8585 7.00449 17.8585 6.98723 17.8955C6.95874 17.9049 6.93024 17.9143 6.90088 17.924C6.94432 17.7819 7.03204 17.6888 7.13116 17.5815Z" fill="#12D18E"/>
<path d="M15.2771 19.0938C15.2676 19.1126 15.2581 19.1315 15.2483 19.1509C15.1721 19.1678 15.096 19.172 15.0181 19.1794C15.0932 19.0801 15.1571 19.0859 15.2771 19.0938Z" fill="#12D18E"/>
</svg>
