<svg width="60" height="60" viewBox="0 0 60 60" fill="none" xmlns="http://www.w3.org/2000/svg">
<rect width="60" height="60" rx="30" fill="#FF9800" fill-opacity="0.08"/>
<path fill-rule="evenodd" clip-rule="evenodd" d="M24.5523 18.3337H35.4478C39.4157 18.3337 41.6557 20.5842 41.6673 24.5521V35.4487C41.6673 39.4154 39.4157 41.6671 35.4478 41.6671H24.5523C20.5845 41.6671 18.334 39.4154 18.334 35.4487V24.5521C18.334 20.5842 20.5845 18.3337 24.5523 18.3337ZM30.0578 36.8371C30.5607 36.8371 30.9795 36.4637 31.0262 35.9621V24.0737C31.0728 23.7121 30.899 23.3492 30.584 23.1521C30.2562 22.9537 29.8595 22.9537 29.5457 23.1521C29.2295 23.3492 29.0557 23.7121 29.0895 24.0737V35.9621C29.149 36.4637 29.5678 36.8371 30.0578 36.8371ZM35.4257 36.8371C35.9157 36.8371 36.3345 36.4637 36.394 35.9621V32.1354C36.4278 31.7609 36.254 31.4121 35.9378 31.2137C35.624 31.0154 35.2273 31.0154 34.9007 31.2137C34.5845 31.4121 34.4107 31.7609 34.4573 32.1354V35.9621C34.504 36.4637 34.9228 36.8371 35.4257 36.8371ZM25.5895 35.9621C25.5428 36.4637 25.124 36.8371 24.6212 36.8371C24.1195 36.8371 23.6995 36.4637 23.654 35.9621V27.9004C23.619 27.5376 23.7928 27.1771 24.109 26.9787C24.4228 26.7804 24.8207 26.7804 25.1357 26.9787C25.4495 27.1771 25.6257 27.5376 25.5895 27.9004V35.9621Z" fill="url(#paint0_linear_791_8122)"/>
<defs>
<linearGradient id="paint0_linear_791_8122" x1="41.6673" y1="41.6671" x2="13.9027" y2="33.617" gradientUnits="userSpaceOnUse">
<stop stop-color="#FB9400"/>
<stop offset="1" stop-color="#FFAB38"/>
</linearGradient>
</defs>
</svg>
