<svg width="60" height="60" viewBox="0 0 60 60" fill="none" xmlns="http://www.w3.org/2000/svg">
<rect width="60" height="60" rx="30" fill="#1BAC4B" fill-opacity="0.08"/>
<path fill-rule="evenodd" clip-rule="evenodd" d="M26.3561 23.4417C26.3561 25.6194 24.5607 27.3846 22.344 27.3846C20.1287 27.3846 18.332 25.6194 18.332 23.4417C18.332 21.2651 20.1287 19.5 22.344 19.5C24.5607 19.5 26.3561 21.2651 26.3561 23.4417ZM39.9076 21.7147C40.8772 21.7147 41.6654 22.489 41.6654 23.4417C41.6654 24.3955 40.8772 25.1699 39.9076 25.1699H32.2362C31.2652 25.1699 30.4771 24.3955 30.4771 23.4417C30.4771 22.489 31.2652 21.7147 32.2362 21.7147H39.9076ZM20.0911 34.6176H27.7625C28.7335 34.6176 29.5216 35.3919 29.5216 36.3458C29.5216 37.2984 28.7335 38.074 27.7625 38.074H20.0911C19.1202 38.074 18.332 37.2984 18.332 36.3458C18.332 35.3919 19.1202 34.6176 20.0911 34.6176ZM37.6534 40.2407C39.87 40.2407 41.6654 38.4756 41.6654 36.2991C41.6654 34.1213 39.87 32.3562 37.6534 32.3562C35.438 32.3562 33.6413 34.1213 33.6413 36.2991C33.6413 38.4756 35.438 40.2407 37.6534 40.2407Z" fill="url(#paint0_linear_820_17254)"/>
<defs>
<linearGradient id="paint0_linear_820_17254" x1="41.6654" y1="40.2407" x2="14.4612" y2="31.3672" gradientUnits="userSpaceOnUse">
<stop stop-color="#12D18E"/>
<stop offset="1" stop-color="#71E3BB"/>
</linearGradient>
</defs>
</svg>
