<svg width="60" height="60" viewBox="0 0 60 60" fill="none" xmlns="http://www.w3.org/2000/svg">
<rect width="60" height="60" rx="30" fill="#1BAC4B" fill-opacity="0.08"/>
<path fill-rule="evenodd" clip-rule="evenodd" d="M30.3795 18.5779C30.5658 18.4106 30.8122 18.323 31.0645 18.3342C36.3971 18.4938 40.8538 22.365 41.6615 27.539C41.6666 27.5699 41.6666 27.6014 41.6615 27.6323C41.6789 27.8771 41.5962 28.1186 41.4316 28.3034C41.267 28.4882 41.0342 28.6011 40.7846 28.617L31.8252 29.2079C31.5289 29.2341 31.2351 29.1366 31.0159 28.9393C30.7966 28.742 30.6724 28.4632 30.6736 28.1713L30.0714 19.3708V19.2257C30.0823 18.9782 30.1932 18.7451 30.3795 18.5779ZM29.765 31.5091L37.5 31.0322H37.5833C37.9168 31.0377 38.2344 31.1729 38.4662 31.4081C38.698 31.6434 38.8251 31.9593 38.8194 32.2865C38.5134 36.7456 35.2442 40.4713 30.7953 41.4312C26.3463 42.391 21.7856 40.3546 19.6011 36.4328C18.9588 35.3032 18.5529 34.0592 18.4072 32.7737C18.3507 32.3928 18.326 32.008 18.3333 31.6231C18.348 26.8815 21.7239 22.7888 26.4474 21.786C27.0193 21.679 27.5926 21.9645 27.8421 22.4805C27.9653 22.6663 27.9973 22.8939 28.0118 23.1164C28.0936 24.3694 28.1778 25.612 28.2618 26.8498C28.3341 27.9146 28.406 28.9759 28.476 30.0371C28.4724 30.2871 28.5117 30.5359 28.5922 30.7731C28.7818 31.2398 29.2536 31.5359 29.765 31.5091Z" fill="url(#paint0_linear_820_17344)"/>
<defs>
<linearGradient id="paint0_linear_820_17344" x1="41.6654" y1="41.6666" x2="13.9008" y2="33.6165" gradientUnits="userSpaceOnUse">
<stop stop-color="#12D18E"/>
<stop offset="1" stop-color="#71E3BB"/>
</linearGradient>
</defs>
</svg>
