<svg width="24" height="25" viewBox="0 0 24 25" fill="none" xmlns="http://www.w3.org/2000/svg">
<path d="M6.375 5.69043H4.125C3.50368 5.69043 3 6.19411 3 6.81543V10.1904C3 10.8117 3.50368 11.3154 4.125 11.3154H6.375C6.99632 11.3154 7.5 10.8117 7.5 10.1904V6.81543C7.5 6.19411 6.99632 5.69043 6.375 5.69043Z" stroke="white" stroke-width="1.5" stroke-linecap="round" stroke-linejoin="round"/>
<path d="M5.25 3.44043V5.69043M5.25 11.3154V21.4404" stroke="white" stroke-width="1.5" stroke-linecap="round" stroke-linejoin="round"/>
<path d="M13.125 14.6904H10.875C10.2537 14.6904 9.75 15.1941 9.75 15.8154V19.1904C9.75 19.8117 10.2537 20.3154 10.875 20.3154H13.125C13.7463 20.3154 14.25 19.8117 14.25 19.1904V15.8154C14.25 15.1941 13.7463 14.6904 13.125 14.6904Z" stroke="white" stroke-width="1.5" stroke-linecap="round" stroke-linejoin="round"/>
<path d="M12 3.44043V14.6904M12 20.3154V21.4404" stroke="white" stroke-width="1.5" stroke-linecap="round" stroke-linejoin="round"/>
<path d="M19.875 4.56543H17.625C17.0037 4.56543 16.5 5.06911 16.5 5.69043V10.1904C16.5 10.8117 17.0037 11.3154 17.625 11.3154H19.875C20.4963 11.3154 21 10.8117 21 10.1904V5.69043C21 5.06911 20.4963 4.56543 19.875 4.56543Z" stroke="white" stroke-width="1.5" stroke-linecap="round" stroke-linejoin="round"/>
<path d="M18.75 3.44043V4.56543M18.75 11.3154V21.4404" stroke="white" stroke-width="1.5" stroke-linecap="round" stroke-linejoin="round"/>
</svg>
