<svg width="24" height="25" viewBox="0 0 24 25" fill="none" xmlns="http://www.w3.org/2000/svg">
<path fill-rule="evenodd" clip-rule="evenodd" d="M7.21653 16.4433C7.05653 16.4433 6.89553 16.3923 6.75953 16.2883C6.43153 16.0353 6.36953 15.5643 6.62253 15.2363L9.61553 11.3463C9.73753 11.1873 9.91853 11.0843 10.1165 11.0593C10.3185 11.0333 10.5165 11.0893 10.6735 11.2143L13.4935 13.4293L15.9605 10.2463C16.2145 9.9173 16.6845 9.8563 17.0125 10.1123C17.3405 10.3663 17.4005 10.8373 17.1465 11.1643L14.2165 14.9443C14.0945 15.1023 13.9145 15.2053 13.7165 15.2293C13.5165 15.2563 13.3185 15.1983 13.1605 15.0753L10.3425 12.8613L7.81153 16.1503C7.66353 16.3423 7.44153 16.4433 7.21653 16.4433" fill="white"/>
<mask id="mask0_1940_36070" style="mask-type:luminance" maskUnits="userSpaceOnUse" x="17" y="2" width="6" height="6">
<path fill-rule="evenodd" clip-rule="evenodd" d="M17.2949 2.44043H22.6389V7.78533H17.2949V2.44043Z" fill="white"/>
</mask>
<g mask="url(#mask0_1940_36070)">
<path fill-rule="evenodd" clip-rule="evenodd" d="M19.9669 3.94043C19.3209 3.94043 18.7949 4.46543 18.7949 5.11243C18.7949 5.75843 19.3209 6.28543 19.9669 6.28543C20.6129 6.28543 21.1389 5.75843 21.1389 5.11243C21.1389 4.46543 20.6129 3.94043 19.9669 3.94043M19.9669 7.78543C18.4939 7.78543 17.2949 6.58643 17.2949 5.11243C17.2949 3.63843 18.4939 2.44043 19.9669 2.44043C21.4409 2.44043 22.6389 3.63843 22.6389 5.11243C22.6389 6.58643 21.4409 7.78543 19.9669 7.78543" fill="white"/>
</g>
<mask id="mask1_1940_36070" style="mask-type:luminance" maskUnits="userSpaceOnUse" x="2" y="3" width="20" height="21">
<path fill-rule="evenodd" clip-rule="evenodd" d="M2 3.28247H21.8619V23.1435H2V3.28247Z" fill="white"/>
</mask>
<g mask="url(#mask1_1940_36070)">
<path fill-rule="evenodd" clip-rule="evenodd" d="M16.233 23.1435H7.629C4.262 23.1435 2 20.7785 2 17.2585V9.17647C2 5.65147 4.262 3.28247 7.629 3.28247H14.897C15.311 3.28247 15.647 3.61847 15.647 4.03247C15.647 4.44647 15.311 4.78247 14.897 4.78247H7.629C5.121 4.78247 3.5 6.50647 3.5 9.17647V17.2585C3.5 19.9635 5.082 21.6435 7.629 21.6435H16.233C18.741 21.6435 20.362 19.9225 20.362 17.2585V10.2195C20.362 9.80547 20.698 9.46947 21.112 9.46947C21.526 9.46947 21.862 9.80547 21.862 10.2195V17.2585C21.862 20.7785 19.6 23.1435 16.233 23.1435" fill="white"/>
</g>
</svg>
