<svg width="56" height="56" viewBox="0 0 56 56" fill="none" xmlns="http://www.w3.org/2000/svg">
<rect width="56" height="56" rx="28" fill="#FF5A5F" fill-opacity="0.08"/>
<path fill-rule="evenodd" clip-rule="evenodd" d="M23.67 18H32.34C35.73 18 38 20.38 38 23.92V32.091C38 35.621 35.73 38 32.34 38H23.67C20.28 38 18 35.621 18 32.091V23.92C18 20.38 20.28 18 23.67 18ZM31.01 31C31.35 30.661 31.35 30.111 31.01 29.771L29.23 27.991L31.01 26.21C31.35 25.871 31.35 25.311 31.01 24.971C30.67 24.63 30.12 24.63 29.77 24.971L28 26.75L26.22 24.971C25.87 24.63 25.32 24.63 24.98 24.971C24.64 25.311 24.64 25.871 24.98 26.21L26.76 27.991L24.98 29.761C24.64 30.111 24.64 30.661 24.98 31C25.15 31.17 25.38 31.261 25.6 31.261C25.83 31.261 26.05 31.17 26.22 31L28 29.231L29.78 31C29.95 31.181 30.17 31.261 30.39 31.261C30.62 31.261 30.84 31.17 31.01 31Z" fill="url(#paint0_linear_1948_60085)"/>
<defs>
<linearGradient id="paint0_linear_1948_60085" x1="38" y1="38" x2="14.2018" y2="31.0999" gradientUnits="userSpaceOnUse">
<stop stop-color="#FF5A5F"/>
<stop offset="1" stop-color="#FF8A9B"/>
</linearGradient>
</defs>
</svg>
