<svg width="56" height="56" viewBox="0 0 56 56" fill="none" xmlns="http://www.w3.org/2000/svg">
<rect width="56" height="56" rx="28" fill="#246BFD" fill-opacity="0.08"/>
<path fill-rule="evenodd" clip-rule="evenodd" d="M24.0976 28C24.0976 30.1333 25.8439 31.8691 28 31.8691C30.1463 31.8691 31.8927 30.1333 31.8927 28C31.8927 25.857 30.1463 24.1212 28 24.1212C25.8439 24.1212 24.0976 25.857 24.0976 28ZM33.7366 22.0461C35.4439 23.3648 36.8976 25.2945 37.9415 27.7091C38.0195 27.8933 38.0195 28.1067 37.9415 28.2812C35.8537 33.1103 32.1366 36 28 36H27.9902C23.8634 36 20.1463 33.1103 18.0585 28.2812C17.9805 28.1067 17.9805 27.8933 18.0585 27.7091C20.1463 22.88 23.8634 20 27.9902 20H28C30.0683 20 32.0293 20.7176 33.7366 22.0461ZM28.0012 30.4124C29.3378 30.4124 30.4304 29.3264 30.4304 27.9979C30.4304 26.6597 29.3378 25.5736 28.0012 25.5736C27.8841 25.5736 27.767 25.5833 27.6597 25.6027C27.6207 26.6694 26.7426 27.5227 25.6597 27.5227H25.6109C25.5817 27.6779 25.5621 27.833 25.5621 27.9979C25.5621 29.3264 26.6548 30.4124 28.0012 30.4124Z" fill="url(#paint0_linear_1948_60064)"/>
<defs>
<linearGradient id="paint0_linear_1948_60064" x1="38" y1="36" x2="15.1965" y2="27.7354" gradientUnits="userSpaceOnUse">
<stop stop-color="#246BFD"/>
<stop offset="1" stop-color="#5089FD"/>
</linearGradient>
</defs>
</svg>
