<svg width="76" height="76" viewBox="0 0 76 76" fill="none" xmlns="http://www.w3.org/2000/svg">
<rect width="76" height="76" rx="38" fill="#FF9800" fill-opacity="0.08"/>
<path d="M36.8451 30.9358V24.9223C36.8451 24.2828 37.3552 23.75 38.0002 23.75C38.5777 23.75 39.0669 24.1977 39.1445 24.7649L39.1551 24.9223V30.9358L46.325 30.9362C49.895 30.9362 52.828 33.8597 52.9927 37.5056L53 37.8291V45.3881C53 49.0596 50.169 52.0733 46.652 52.2425L46.34 52.25H29.66C26.09 52.25 23.1711 49.3412 23.0073 45.6819L23 45.3571L23 37.8136C23 34.1422 25.8169 31.1138 29.333 30.9438L29.645 30.9362H36.845V40.5398L34.445 38.0615C33.995 37.5968 33.26 37.5968 32.81 38.0615C32.585 38.2938 32.48 38.6036 32.48 38.9134C32.48 39.1489 32.5472 39.3942 32.6893 39.6019L32.81 39.7499L37.175 44.2728C37.385 44.5052 37.685 44.6291 38 44.6291C38.25 44.6291 38.5 44.543 38.6979 44.3799L38.81 44.2728L43.175 39.7499C43.625 39.2852 43.625 38.5262 43.175 38.0615C42.7659 37.639 42.1213 37.6006 41.6694 37.9463L41.54 38.0615L39.155 40.5398V30.9362L36.8451 30.9358Z" fill="url(#paint0_linear_574_13542)"/>
<defs>
<linearGradient id="paint0_linear_574_13542" x1="53" y1="52.25" x2="17.5993" y2="41.4457" gradientUnits="userSpaceOnUse">
<stop stop-color="#FB9400"/>
<stop offset="1" stop-color="#FFAB38"/>
</linearGradient>
</defs>
</svg>
