<svg width="60" height="60" viewBox="0 0 60 60" fill="none" xmlns="http://www.w3.org/2000/svg">
<rect width="60" height="60" rx="30" fill="#1BAC4B" fill-opacity="0.08"/>
<path fill-rule="evenodd" clip-rule="evenodd" d="M39.7987 26.6703L40.639 27.5103C41.3043 28.1636 41.6661 29.0503 41.6661 29.9836C41.6777 30.9169 41.3159 31.8048 40.6624 32.4686C40.6546 32.4771 40.6468 32.4847 40.639 32.4922C40.6351 32.4959 40.6312 32.4997 40.6274 32.5036L39.7987 33.3319C39.4719 33.6586 39.2852 34.1019 39.2852 34.5698V35.7703C39.2852 37.7069 37.7096 39.2831 35.7723 39.2831H34.5702C34.1033 39.2831 33.6598 39.4686 33.333 39.7953L32.4927 40.6353C31.8042 41.3248 30.9055 41.6619 30.0068 41.6619C29.1082 41.6619 28.2095 41.3248 27.5209 40.6481L26.669 39.7953C26.3422 39.4686 25.8987 39.2831 25.4318 39.2831H24.2297C22.2924 39.2831 20.7168 37.7069 20.7168 35.7703V34.5698C20.7168 34.1019 20.5301 33.6586 20.2033 33.3203L19.363 32.4919C17.9975 31.1281 17.9858 28.8986 19.3513 27.5231L20.2033 26.6703C20.5301 26.3436 20.7168 25.9003 20.7168 25.4219V24.2319C20.7168 22.2953 22.2924 20.7214 24.2297 20.7214H25.4318C25.8987 20.7214 26.3422 20.5336 26.669 20.2069L27.5093 19.3669C28.8748 17.9914 31.1039 17.9914 32.4811 19.3564L33.333 20.2069C33.6598 20.5336 34.1033 20.7214 34.5702 20.7214H35.7723C37.7096 20.7214 39.2852 22.2953 39.2852 24.2319V25.4348C39.2852 25.9003 39.4719 26.3436 39.7987 26.6703ZM26.9957 34.0203C27.2759 34.0203 27.5326 33.9153 27.7193 33.7169L33.7182 27.7214C34.115 27.3248 34.115 26.6703 33.7182 26.2736C33.3214 25.8781 32.6795 25.8781 32.2827 26.2736L26.2838 32.2703C25.887 32.6669 25.887 33.3203 26.2838 33.7169C26.4706 33.9153 26.7273 34.0203 26.9957 34.0203ZM31.9792 32.9936C31.9792 33.5653 32.4344 34.0203 33.0063 34.0203C33.5665 34.0203 34.0216 33.5653 34.0216 32.9936C34.0216 32.4348 33.5665 31.9786 33.0063 31.9786C32.4344 31.9786 31.9792 32.4348 31.9792 32.9936ZM27.0074 25.9819C27.5676 25.9819 28.0228 26.4369 28.0228 26.9969C28.0228 27.5698 27.5676 28.0236 27.0074 28.0236C26.4472 28.0236 25.9804 27.5698 25.9804 26.9969C25.9804 26.4369 26.4472 25.9819 27.0074 25.9819Z" fill="url(#paint0_linear_791_7959)"/>
<defs>
<linearGradient id="paint0_linear_791_7959" x1="41.6663" y1="41.6619" x2="13.9028" y2="33.6103" gradientUnits="userSpaceOnUse">
<stop stop-color="#12D18E"/>
<stop offset="1" stop-color="#71E3BB"/>
</linearGradient>
</defs>
</svg>
