<svg width="22" height="24" viewBox="0 0 22 24" fill="none" xmlns="http://www.w3.org/2000/svg">
<path fill-rule="evenodd" clip-rule="evenodd" d="M16.146 1.22997L16.1472 2.10453C19.3609 2.35641 21.4839 4.54631 21.4873 7.90463L21.5 17.7347C21.5046 21.3962 19.2043 23.6491 15.5171 23.6549L6.51053 23.6666C2.84639 23.6712 0.517286 21.3647 0.512678 17.6927L0.500008 7.97809C0.4954 4.59762 2.54345 2.41355 5.7572 2.11853L5.75605 1.24397C5.7549 0.730889 6.13502 0.344915 6.64185 0.344915C7.14867 0.343749 7.52879 0.728557 7.52995 1.24163L7.5311 2.05789L14.3733 2.04856L14.3721 1.2323C14.371 0.719228 14.7511 0.334421 15.2579 0.333255C15.7532 0.332089 16.1449 0.716896 16.146 1.22997ZM2.27506 8.33841L19.7146 8.31509V7.90696C19.665 5.39988 18.4072 4.08454 16.1495 3.88864L16.1506 4.78652C16.1506 5.28794 15.7601 5.68557 15.2648 5.68557C14.758 5.68674 14.3767 5.29027 14.3767 4.78886L14.3756 3.84433L7.5334 3.85366L7.53456 4.79702C7.53456 5.2996 7.15559 5.69607 6.64876 5.69607C6.14193 5.69724 5.76066 5.30193 5.76066 4.79935L5.7595 3.90147C3.51333 4.12652 2.27045 5.44653 2.27391 7.97576L2.27506 8.33841ZM14.7799 13.6383V13.6511C14.7914 14.1875 15.2291 14.5944 15.7601 14.5828C16.2785 14.57 16.692 14.1257 16.6805 13.5893C16.6563 13.0762 16.2405 12.6576 15.7233 12.6588C15.1934 12.6704 14.7787 13.1019 14.7799 13.6383ZM15.7313 18.874C15.2015 18.8623 14.7741 18.4204 14.773 17.884C14.7615 17.3476 15.1865 16.9033 15.7164 16.8905H15.7279C16.2693 16.8905 16.7081 17.3324 16.7081 17.8805C16.7093 18.4285 16.2716 18.8728 15.7313 18.874ZM10.0341 13.6569C10.0572 14.1933 10.496 14.6119 11.0259 14.5886C11.5443 14.5641 11.9578 14.121 11.9347 13.5846C11.9221 13.0599 11.4959 12.6518 10.9775 12.6529C10.4477 12.6762 10.033 13.1205 10.0341 13.6569ZM11.0305 18.8215C10.5007 18.8448 10.0629 18.4262 10.0387 17.8898C10.0387 17.3534 10.4523 16.9103 10.9821 16.8858C11.5005 16.8846 11.9278 17.2928 11.9394 17.8163C11.9635 18.3539 11.5489 18.797 11.0305 18.8215ZM5.28838 13.6977C5.31142 14.2341 5.75029 14.6539 6.28016 14.6294C6.7985 14.6061 7.21203 14.1618 7.18784 13.6254C7.17632 13.1007 6.75012 12.6926 6.23062 12.6937C5.70076 12.7171 5.28723 13.1613 5.28838 13.6977ZM6.28476 18.8273C5.7549 18.8518 5.31718 18.432 5.29299 17.8956C5.29184 17.3592 5.70652 16.915 6.23638 16.8916C6.75473 16.8905 7.18208 17.2986 7.1936 17.8233C7.21779 18.3597 6.80426 18.804 6.28476 18.8273Z" fill="#12D18E"/>
</svg>
