<svg width="21" height="20" viewBox="0 0 21 20" fill="none" xmlns="http://www.w3.org/2000/svg">
<path fill-rule="evenodd" clip-rule="evenodd" d="M2.16699 13.4003V6.59199C2.16699 3.65033 4.05949 1.66699 6.88366 1.66699H14.1087C16.9337 1.66699 18.8337 3.65033 18.8337 6.59199V13.4003C18.8337 16.3503 16.9337 18.3337 14.1087 18.3337H6.88366C4.05949 18.3337 2.16699 16.3503 2.16699 13.4003ZM11.1253 11.892V6.60033C11.1253 6.25033 10.842 5.97533 10.5003 5.97533C10.1503 5.97533 9.87533 6.25033 9.87533 6.60033V11.892L7.81699 9.82533C7.70033 9.70866 7.53366 9.64199 7.37533 9.64199C7.21783 9.64199 7.05866 9.70866 6.93366 9.82533C6.69199 10.067 6.69199 10.467 6.93366 10.7087L10.0587 13.8503C10.292 14.0837 10.7087 14.0837 10.942 13.8503L14.067 10.7087C14.3087 10.467 14.3087 10.067 14.067 9.82533C13.817 9.58366 13.4253 9.58366 13.1753 9.82533L11.1253 11.892Z" fill="url(#paint0_linear_791_5982)"/>
<defs>
<linearGradient id="paint0_linear_791_5982" x1="18.8337" y1="18.3337" x2="-0.998178" y2="12.5836" gradientUnits="userSpaceOnUse">
<stop stop-color="#FF5A5F"/>
<stop offset="1" stop-color="#FF8A9B"/>
</linearGradient>
</defs>
</svg>
