<svg width="42" height="42" viewBox="0 0 42 42" fill="none" xmlns="http://www.w3.org/2000/svg">
<path fill-rule="evenodd" clip-rule="evenodd" d="M30.7197 0.18828C33.7166 0.000973614 36.6719 1.04156 38.8988 3.08112C40.9384 5.30798 41.979 8.26326 41.8125 11.281V30.7192C41.9998 33.7369 40.9384 36.6922 38.9196 38.919C36.6927 40.9586 33.7166 41.9992 30.7197 41.8119H11.2813C8.26357 41.9992 5.30827 40.9586 3.08139 38.919C1.04181 36.6922 0.00121642 33.7369 0.188524 30.7192V11.281C0.00121642 8.26326 1.04181 5.30798 3.08139 3.08112C5.30827 1.04156 8.26357 0.000973614 11.2813 0.18828H30.7197ZM18.8778 31.0939L32.8842 17.0459C34.1538 15.7556 34.1538 13.6744 32.8842 12.4049L30.1787 9.69936C28.8883 8.40903 26.8071 8.40903 25.5168 9.69936L24.1224 11.1146C23.9143 11.3227 23.9143 11.6765 24.1224 11.8846C24.1224 11.8846 27.4315 15.1729 27.4939 15.2561C27.7229 15.5059 27.8685 15.8388 27.8685 16.2135C27.8685 16.9627 27.265 17.587 26.495 17.587C26.1412 17.587 25.8082 17.4413 25.5792 17.2124L22.1036 13.7577C21.9371 13.5912 21.6458 13.5912 21.4793 13.7577L11.552 23.6849C10.8652 24.3717 10.4697 25.2874 10.4489 26.2656L10.3241 31.1979C10.3241 31.4685 10.4073 31.7182 10.5946 31.9055C10.7819 32.0929 11.0317 32.1969 11.3022 32.1969H16.193C17.192 32.1969 18.1494 31.8015 18.8778 31.0939Z" fill="#246BFD"/>
</svg>
