<svg width="60" height="60" viewBox="0 0 60 60" fill="none" xmlns="http://www.w3.org/2000/svg">
<rect width="60" height="60" rx="30" fill="#FF5A5F" fill-opacity="0.08"/>
<path fill-rule="evenodd" clip-rule="evenodd" d="M30.3805 18.5779C30.5668 18.4106 30.8132 18.323 31.0655 18.3342C36.3981 18.4938 40.8548 22.365 41.6625 27.539C41.6676 27.5699 41.6676 27.6014 41.6625 27.6323C41.6799 27.8771 41.5971 28.1186 41.4326 28.3034C41.268 28.4882 41.0352 28.6011 40.7856 28.617L31.8262 29.2079C31.5299 29.2341 31.236 29.1366 31.0168 28.9393C30.7976 28.742 30.6733 28.4632 30.6746 28.1713L30.0723 19.3708V19.2257C30.0833 18.9782 30.1941 18.7451 30.3805 18.5779ZM29.7659 31.5091L37.501 31.0322H37.5843C37.9177 31.0377 38.2353 31.1729 38.4672 31.4081C38.699 31.6434 38.8261 31.9593 38.8204 32.2865C38.5144 36.7456 35.2452 40.4713 30.7962 41.4312C26.3473 42.391 21.7865 40.3546 19.6021 36.4328C18.9598 35.3032 18.5539 34.0592 18.4082 32.7737C18.3517 32.3928 18.327 32.008 18.3342 31.6231C18.349 26.8815 21.7248 22.7888 26.4484 21.786C27.0202 21.679 27.5936 21.9645 27.843 22.4805C27.9663 22.6663 27.9982 22.8939 28.0128 23.1164C28.0945 24.3694 28.1788 25.612 28.2628 26.8498C28.335 27.9146 28.407 28.9759 28.477 30.0371C28.4734 30.2871 28.5126 30.5359 28.5932 30.7731C28.7828 31.2398 29.2546 31.5359 29.7659 31.5091Z" fill="url(#paint0_linear_791_6346)"/>
<defs>
<linearGradient id="paint0_linear_791_6346" x1="41.6663" y1="41.6666" x2="13.9018" y2="33.6165" gradientUnits="userSpaceOnUse">
<stop stop-color="#FF5A5F"/>
<stop offset="1" stop-color="#FF8A9B"/>
</linearGradient>
</defs>
</svg>
