<svg width="60" height="60" viewBox="0 0 60 60" fill="none" xmlns="http://www.w3.org/2000/svg">
<rect width="60" height="60" rx="30" fill="#1BAC4B" fill-opacity="0.08"/>
<path fill-rule="evenodd" clip-rule="evenodd" d="M36.0431 21.1449C36.0431 19.5933 37.3031 18.3333 38.8548 18.3333C40.4065 18.3333 41.6665 19.5933 41.6665 21.1449C41.6665 22.6966 40.4065 23.9566 38.8548 23.9566C37.3031 23.9566 36.0431 22.6966 36.0431 21.1449ZM31.5513 33.2191L34.923 28.8686L34.8763 28.8919C35.063 28.6353 35.098 28.3086 34.9697 28.0169C34.8425 27.7253 34.5613 27.5269 34.2592 27.5036C33.943 27.4686 33.6292 27.6086 33.4413 27.8653L30.6192 31.5169L27.3863 28.9736C27.188 28.8219 26.9547 28.7624 26.7213 28.7869C26.4892 28.8219 26.2792 28.9491 26.138 29.1358L22.6858 33.6286L22.6147 33.7336C22.4163 34.1058 22.5097 34.5841 22.8597 34.8419C23.023 34.9469 23.198 35.0169 23.3963 35.0169C23.6658 35.0286 23.9213 34.8874 24.0847 34.6669L27.013 30.8974L30.338 33.3953L30.443 33.4641C30.8163 33.6624 31.283 33.5703 31.5513 33.2191ZM34.0247 20.4103C33.978 20.7019 33.9547 20.9936 33.9547 21.2853C33.9547 23.9103 36.078 26.0324 38.6913 26.0324C38.983 26.0324 39.263 25.9986 39.5547 25.9519V35.3658C39.5547 39.3219 37.2213 41.6669 33.2547 41.6669H24.6342C20.6663 41.6669 18.333 39.3219 18.333 35.3658V26.7336C18.333 22.7669 20.6663 20.4103 24.6342 20.4103H34.0247Z" fill="url(#paint0_linear_791_109)"/>
<defs>
<linearGradient id="paint0_linear_791_109" x1="41.6665" y1="41.6669" x2="13.9017" y2="33.6169" gradientUnits="userSpaceOnUse">
<stop stop-color="#12D18E"/>
<stop offset="1" stop-color="#71E3BB"/>
</linearGradient>
</defs>
</svg>
