<svg width="76" height="76" viewBox="0 0 76 76" fill="none" xmlns="http://www.w3.org/2000/svg">
<rect width="76" height="76" rx="38" fill="#1BAC4B" fill-opacity="0.08"/>
<path fill-rule="evenodd" clip-rule="evenodd" d="M31.3193 24.9169C31.5685 25.0968 31.9706 25.5102 31.9706 25.5102C33.5312 26.9729 35.8818 30.6109 36.6366 32.4567C36.6524 32.4567 37.1001 33.5541 37.1176 34.0761V34.1456C37.1176 34.9456 36.67 35.6938 35.9502 36.0769C35.6535 36.2348 34.9318 36.3817 34.5836 36.4525C34.4683 36.476 34.394 36.4911 34.3896 36.4956C33.3609 36.6523 31.7827 36.7557 30.05 36.7557C28.2314 36.7557 26.5847 36.6523 25.5718 36.4599C25.5542 36.4599 24.6291 36.2693 24.3201 36.1464C23.8742 35.9557 23.4968 35.6065 23.2563 35.1718C23.0843 34.8244 23 34.4574 23 34.0761C23.0158 33.6753 23.2739 32.927 23.3932 32.6313C24.1481 30.6804 26.6181 26.9551 28.1278 25.528C28.2846 25.3688 28.4631 25.2021 28.5873 25.0861C28.6535 25.0242 28.7043 24.9767 28.7282 24.9525C29.1056 24.6568 29.569 24.5 30.0676 24.5C30.5117 24.5 30.9576 24.639 31.3193 24.9169ZM47.3429 35.2427C47.3429 36.0284 46.7162 36.6644 45.9421 36.6644C45.1679 36.6644 44.5412 36.0284 44.5412 35.2427L44.155 28.3744C44.155 27.3731 44.9555 26.5625 45.9421 26.5625C46.9286 26.5625 47.7274 27.3731 47.7274 28.3744L47.3429 35.2427ZM51.6799 39.8534C52.1258 40.0458 52.5032 40.3932 52.7437 40.8279C52.9157 41.1754 53 41.5424 53 41.9254C52.9842 42.3245 52.7261 43.0746 52.605 43.3704C51.8519 45.3195 49.3802 49.0449 47.8722 50.4738C47.718 50.6291 47.5429 50.7925 47.419 50.9081L47.419 50.9082L47.419 50.9082C47.3497 50.9728 47.2964 51.0225 47.2718 51.0475C46.8927 51.3432 46.431 51.5 45.9342 51.5C45.4865 51.5 45.0406 51.361 44.6807 51.0813C44.4315 50.9031 44.0294 50.4898 44.0294 50.4898C42.4671 49.0289 40.1182 45.389 39.3634 43.5432C39.3458 43.5432 38.8999 42.4475 38.8824 41.9254V41.856C38.8824 41.0542 39.3282 40.3059 40.0498 39.9229C40.3459 39.7666 41.0652 39.6193 41.4142 39.5479L41.4143 39.5479L41.4143 39.5479L41.4144 39.5479C41.5308 39.524 41.606 39.5086 41.6104 39.5042C42.6391 39.3474 44.2173 39.2441 45.95 39.2441C47.7686 39.2441 49.4153 39.3474 50.4282 39.5398C50.444 39.5398 51.3709 39.7305 51.6799 39.8534ZM30.0583 39.3358C29.2841 39.3358 28.6574 39.9718 28.6574 40.7575L28.2712 47.6256C28.2712 48.6269 29.0717 49.4375 30.0583 49.4375C31.0449 49.4375 31.8436 48.6269 31.8436 47.6256L31.4592 40.7575C31.4592 39.9718 30.8325 39.3358 30.0583 39.3358Z" fill="url(#paint0_linear_574_15438)"/>
<defs>
<linearGradient id="paint0_linear_574_15438" x1="53" y1="51.5" x2="17.9404" y2="40.2053" gradientUnits="userSpaceOnUse">
<stop stop-color="#12D18E"/>
<stop offset="1" stop-color="#71E3BB"/>
</linearGradient>
</defs>
</svg>
