<svg width="76" height="76" viewBox="0 0 76 76" fill="none" xmlns="http://www.w3.org/2000/svg">
<rect width="76" height="76" rx="38" fill="#019B83" fill-opacity="0.08"/>
<path fill-rule="evenodd" clip-rule="evenodd" d="M33.3886 44.585H41.4678C42.0767 44.585 42.5817 44.075 42.5817 43.46C42.5817 42.845 42.0767 42.35 41.4678 42.35H33.3886C32.7797 42.35 32.2748 42.845 32.2748 43.46C32.2748 44.075 32.7797 44.585 33.3886 44.585ZM38.4084 34.85H33.3886C32.7797 34.85 32.2748 35.36 32.2748 35.975C32.2748 36.59 32.7797 37.085 33.3886 37.085H38.4084C39.0173 37.085 39.5223 36.59 39.5223 35.975C39.5223 35.36 39.0173 34.85 38.4084 34.85ZM49.0071 33.5384C49.3562 33.5344 49.7363 33.53 50.0817 33.53C50.453 33.53 50.75 33.83 50.75 34.205V46.265C50.75 49.985 47.7649 53 44.0817 53H32.2599C28.3985 53 25.25 49.835 25.25 45.935V29.765C25.25 26.045 28.25 23 31.948 23H39.8787C40.2649 23 40.5619 23.315 40.5619 23.69V28.52C40.5619 31.265 42.8045 33.515 45.5223 33.53C46.1571 33.53 46.7168 33.5347 47.2065 33.5389C47.5876 33.5421 47.9263 33.545 48.2252 33.545C48.4367 33.545 48.7107 33.5418 49.0071 33.5384ZM49.4166 31.349C48.1958 31.3535 46.7567 31.349 45.7216 31.3385C44.079 31.3385 42.726 29.972 42.726 28.313V24.359C42.726 23.7125 43.5028 23.3915 43.9468 23.858C44.7507 24.7022 45.8555 25.8627 46.9551 27.0179C48.0516 28.1697 49.143 29.3162 49.926 30.1385C50.3597 30.593 50.0419 31.3475 49.4166 31.349Z" fill="url(#paint0_linear_574_14825)"/>
<defs>
<linearGradient id="paint0_linear_574_14825" x1="50.75" y1="53" x2="19.74" y2="45.3576" gradientUnits="userSpaceOnUse">
<stop stop-color="#019B83"/>
<stop offset="1" stop-color="#18C6AB"/>
</linearGradient>
</defs>
</svg>
