<svg width="76" height="76" viewBox="0 0 76 76" fill="none" xmlns="http://www.w3.org/2000/svg">
<rect width="76" height="76" rx="38" fill="#6949FF" fill-opacity="0.08"/>
<path fill-rule="evenodd" clip-rule="evenodd" d="M31.715 23H44.2865C48.92 23 51.5 25.67 51.5 30.245V45.74C51.5 50.39 48.92 53 44.2865 53H31.715C27.155 53 24.5 50.39 24.5 45.74V30.245C24.5 25.67 27.155 23 31.715 23ZM32.12 29.99V29.975H36.6035C37.25 29.975 37.775 30.5 37.775 31.1435C37.775 31.805 37.25 32.33 36.6035 32.33H32.12C31.4735 32.33 30.95 31.805 30.95 31.16C30.95 30.515 31.4735 29.99 32.12 29.99ZM32.12 39.11H43.88C44.525 39.11 45.05 38.585 45.05 37.94C45.05 37.295 44.525 36.7685 43.88 36.7685H32.12C31.4735 36.7685 30.95 37.295 30.95 37.94C30.95 38.585 31.4735 39.11 32.12 39.11ZM32.12 45.965H43.88C44.4785 45.905 44.93 45.3935 44.93 44.795C44.93 44.18 44.4785 43.67 43.88 43.61H32.12C31.67 43.565 31.235 43.775 30.995 44.165C30.755 44.54 30.755 45.035 30.995 45.425C31.235 45.8 31.67 46.025 32.12 45.965Z" fill="url(#paint0_linear_574_13475)"/>
<defs>
<linearGradient id="paint0_linear_574_13475" x1="51.5" y1="53" x2="18.892" y2="44.491" gradientUnits="userSpaceOnUse">
<stop stop-color="#6949FF"/>
<stop offset="1" stop-color="#876DFF"/>
</linearGradient>
</defs>
</svg>
