<svg width="56" height="56" viewBox="0 0 56 56" fill="none" xmlns="http://www.w3.org/2000/svg">
<rect width="56" height="56" rx="28" fill="#1BAC4B" fill-opacity="0.08"/>
<path fill-rule="evenodd" clip-rule="evenodd" d="M24.9257 32.39H30.3119C30.7178 32.39 31.0545 32.05 31.0545 31.64C31.0545 31.23 30.7178 30.9 30.3119 30.9H24.9257C24.5198 30.9 24.1832 31.23 24.1832 31.64C24.1832 32.05 24.5198 32.39 24.9257 32.39ZM28.2723 25.9H24.9257C24.5198 25.9 24.1832 26.24 24.1832 26.65C24.1832 27.06 24.5198 27.39 24.9257 27.39H28.2723C28.6782 27.39 29.0149 27.06 29.0149 26.65C29.0149 26.24 28.6782 25.9 28.2723 25.9ZM35.3381 25.0256C35.5708 25.0229 35.8242 25.02 36.0545 25.02C36.302 25.02 36.5 25.22 36.5 25.47V33.51C36.5 35.99 34.5099 38 32.0545 38H24.1733C21.599 38 19.5 35.89 19.5 33.29V22.51C19.5 20.03 21.5 18 23.9653 18H29.2525C29.5099 18 29.7079 18.21 29.7079 18.46V21.68C29.7079 23.51 31.203 25.01 33.0149 25.02C33.4381 25.02 33.8112 25.0232 34.1377 25.0259C34.3917 25.0281 34.6175 25.03 34.8168 25.03C34.9578 25.03 35.1405 25.0279 35.3381 25.0256ZM35.6111 23.566C34.7972 23.569 33.8378 23.566 33.1477 23.559C32.0527 23.559 31.1507 22.648 31.1507 21.542V18.906C31.1507 18.475 31.6685 18.261 31.9646 18.572C32.5004 19.1348 33.2368 19.9083 33.9699 20.6784C34.7009 21.4463 35.4286 22.2107 35.9507 22.759C36.2398 23.062 36.0279 23.565 35.6111 23.566Z" fill="url(#paint0_linear_1948_60070)"/>
<defs>
<linearGradient id="paint0_linear_1948_60070" x1="36.5" y1="38" x2="15.8267" y2="32.9051" gradientUnits="userSpaceOnUse">
<stop stop-color="#12D18E"/>
<stop offset="1" stop-color="#71E3BB"/>
</linearGradient>
</defs>
</svg>
