<svg width="60" height="60" viewBox="0 0 60 60" fill="none" xmlns="http://www.w3.org/2000/svg">
<rect width="60" height="60" rx="30" fill="#1BAC4B" fill-opacity="0.08"/>
<path fill-rule="evenodd" clip-rule="evenodd" d="M41.6654 25.2399V34.7716C41.6654 38.8899 39.0159 41.6666 35.062 41.6666H24.947C20.992 41.6666 18.332 38.8899 18.332 34.7716V25.2399C18.332 21.1099 20.992 18.3333 24.947 18.3333H35.062C39.0159 18.3333 41.6654 21.1099 41.6654 25.2399ZM29.1237 27.3516V34.7599C29.1237 35.2499 29.5204 35.6349 29.9987 35.6349C30.4887 35.6349 30.8737 35.2499 30.8737 34.7599V27.3516L33.7554 30.2449C33.9187 30.4083 34.152 30.5016 34.3737 30.5016C34.5942 30.5016 34.817 30.4083 34.992 30.2449C35.3304 29.9066 35.3304 29.3466 34.992 29.0083L30.617 24.6099C30.2904 24.2833 29.707 24.2833 29.3804 24.6099L25.0054 29.0083C24.667 29.3466 24.667 29.9066 25.0054 30.2449C25.3554 30.5833 25.9037 30.5833 26.2537 30.2449L29.1237 27.3516Z" fill="url(#paint0_linear_820_13440)"/>
<defs>
<linearGradient id="paint0_linear_820_13440" x1="41.6654" y1="41.6666" x2="13.9008" y2="33.6165" gradientUnits="userSpaceOnUse">
<stop stop-color="#12D18E"/>
<stop offset="1" stop-color="#71E3BB"/>
</linearGradient>
</defs>
</svg>
