<svg width="56" height="56" viewBox="0 0 56 56" fill="none" xmlns="http://www.w3.org/2000/svg">
<rect width="56" height="56" rx="28" fill="#6949FF" fill-opacity="0.08"/>
<path fill-rule="evenodd" clip-rule="evenodd" d="M20.54 18H23.92C25.33 18 26.46 19.15 26.46 20.561V23.97C26.46 25.39 25.33 26.53 23.92 26.53H20.54C19.14 26.53 18 25.39 18 23.97V20.561C18 19.15 19.14 18 20.54 18ZM20.54 29.4697H23.92C25.33 29.4697 26.46 30.6107 26.46 32.0307V35.4397C26.46 36.8497 25.33 37.9997 23.92 37.9997H20.54C19.14 37.9997 18 36.8497 18 35.4397V32.0307C18 30.6107 19.14 29.4697 20.54 29.4697ZM35.4601 18H32.0801C30.6701 18 29.5401 19.15 29.5401 20.561V23.97C29.5401 25.39 30.6701 26.53 32.0801 26.53H35.4601C36.8601 26.53 38.0001 25.39 38.0001 23.97V20.561C38.0001 19.15 36.8601 18 35.4601 18ZM32.0801 29.4697H35.4601C36.8601 29.4697 38.0001 30.6107 38.0001 32.0307V35.4397C38.0001 36.8497 36.8601 37.9997 35.4601 37.9997H32.0801C30.6701 37.9997 29.5401 36.8497 29.5401 35.4397V32.0307C29.5401 30.6107 30.6701 29.4697 32.0801 29.4697Z" fill="url(#paint0_linear_1948_60058)"/>
<defs>
<linearGradient id="paint0_linear_1948_60058" x1="38.0001" y1="37.9997" x2="14.2019" y2="31.0995" gradientUnits="userSpaceOnUse">
<stop stop-color="#6949FF"/>
<stop offset="1" stop-color="#876DFF"/>
</linearGradient>
</defs>
</svg>
