<svg width="56" height="56" viewBox="0 0 56 56" fill="none" xmlns="http://www.w3.org/2000/svg">
<rect width="56" height="56" rx="28" fill="#FF9800" fill-opacity="0.08"/>
<path fill-rule="evenodd" clip-rule="evenodd" d="M23.67 18H32.34C35.73 18 38 20.38 38 23.92V32.091C38 35.62 35.73 38 32.34 38H23.67C20.28 38 18 35.62 18 32.091V23.92C18 20.38 20.28 18 23.67 18ZM27.43 30.99L32.18 26.24C32.52 25.9 32.52 25.35 32.18 25C31.84 24.66 31.28 24.66 30.94 25L26.81 29.13L25.06 27.38C24.72 27.04 24.16 27.04 23.82 27.38C23.48 27.72 23.48 28.27 23.82 28.62L26.2 30.99C26.37 31.16 26.59 31.24 26.81 31.24C27.04 31.24 27.26 31.16 27.43 30.99Z" fill="url(#paint0_linear_1948_60075)"/>
<defs>
<linearGradient id="paint0_linear_1948_60075" x1="38" y1="38" x2="14.2018" y2="31.0999" gradientUnits="userSpaceOnUse">
<stop stop-color="#FB9400"/>
<stop offset="1" stop-color="#FFAB38"/>
</linearGradient>
</defs>
</svg>
