<svg width="56" height="56" viewBox="0 0 56 56" fill="none" xmlns="http://www.w3.org/2000/svg">
<rect width="56" height="56" rx="28" fill="#FF5A5F" fill-opacity="0.08"/>
<path fill-rule="evenodd" clip-rule="evenodd" d="M25.8953 27.23C25.4578 27.23 25.1119 27.57 25.1119 28C25.1119 28.42 25.4578 28.77 25.8953 28.77H32V33.55C32 36 29.9753 38 27.4724 38H22.5174C20.0247 38 18 36.01 18 33.56V22.45C18 19.99 20.0349 18 22.5276 18H27.4927C29.9753 18 32 19.99 32 22.44V27.23H25.8953ZM35.6302 24.5402L38.5502 27.4502C38.7002 27.6002 38.7802 27.7902 38.7802 28.0002C38.7802 28.2002 38.7002 28.4002 38.5502 28.5402L35.6302 31.4502C35.4802 31.6002 35.2802 31.6802 35.0902 31.6802C34.8902 31.6802 34.6902 31.6002 34.5402 31.4502C34.2402 31.1502 34.2402 30.6602 34.5402 30.3602L36.1402 28.7702H32.0002V27.2302H36.1402L34.5402 25.6402C34.2402 25.3402 34.2402 24.8502 34.5402 24.5502C34.8402 24.2402 35.3302 24.2402 35.6302 24.5402Z" fill="url(#paint0_linear_1948_60090)"/>
<defs>
<linearGradient id="paint0_linear_1948_60090" x1="38.7802" y1="38" x2="14.2052" y2="30.5968" gradientUnits="userSpaceOnUse">
<stop stop-color="#FF5A5F"/>
<stop offset="1" stop-color="#FF8A9B"/>
</linearGradient>
</defs>
</svg>
