<svg width="60" height="60" viewBox="0 0 60 60" fill="none" xmlns="http://www.w3.org/2000/svg">
<rect width="60" height="60" rx="30" fill="#1BAC4B" fill-opacity="0.08"/>
<path fill-rule="evenodd" clip-rule="evenodd" d="M18.332 34.7602V25.2285C18.332 21.1102 20.9815 18.3335 24.9354 18.3335H35.0504C39.0054 18.3335 41.6654 21.1102 41.6654 25.2285V34.7602C41.6654 38.8902 39.0054 41.6668 35.0504 41.6668H24.9354C20.9815 41.6668 18.332 38.8902 18.332 34.7602ZM30.8737 32.6485V25.2402C30.8737 24.7502 30.477 24.3652 29.9987 24.3652C29.5087 24.3652 29.1237 24.7502 29.1237 25.2402V32.6485L26.242 29.7552C26.0787 29.5918 25.8454 29.4985 25.6237 29.4985C25.4032 29.4985 25.1804 29.5918 25.0054 29.7552C24.667 30.0935 24.667 30.6535 25.0054 30.9918L29.3804 35.3902C29.707 35.7168 30.2904 35.7168 30.617 35.3902L34.992 30.9918C35.3304 30.6535 35.3304 30.0935 34.992 29.7552C34.642 29.4168 34.0937 29.4168 33.7437 29.7552L30.8737 32.6485Z" fill="url(#paint0_linear_820_12133)"/>
<defs>
<linearGradient id="paint0_linear_820_12133" x1="41.6654" y1="41.6668" x2="13.9008" y2="33.6167" gradientUnits="userSpaceOnUse">
<stop stop-color="#12D18E"/>
<stop offset="1" stop-color="#71E3BB"/>
</linearGradient>
</defs>
</svg>
