<svg width="60" height="60" viewBox="0 0 60 60" fill="none" xmlns="http://www.w3.org/2000/svg">
<rect width="60" height="60" rx="30" fill="#1BAC4B" fill-opacity="0.08"/>
<path fill-rule="evenodd" clip-rule="evenodd" d="M28.4881 20.1054C27.706 20.1054 27.0407 20.6489 26.8539 21.3813H33.1337C32.947 20.6489 32.2816 20.1054 31.4996 20.1054H28.4881ZM34.908 21.3813H37.2191C39.6703 21.3813 41.6663 23.4016 41.6663 25.8826C41.6663 25.8826 41.5963 26.9329 41.573 28.3955C41.5706 28.5113 41.5146 28.6247 41.4224 28.6932C40.8609 29.1079 40.3473 29.4505 40.3007 29.4741C38.363 30.7737 36.1114 31.6881 33.7127 32.143C33.5563 32.1737 33.4022 32.0922 33.3228 31.9528C32.6505 30.7879 31.3945 30.0294 29.9938 30.0294C28.6025 30.0294 27.3348 30.7796 26.6427 31.9457C26.5621 32.0827 26.4104 32.1619 26.2551 32.1323C23.8763 31.6763 21.6247 30.7631 19.6987 29.4859L18.5781 28.7062C18.4848 28.6471 18.4264 28.5408 18.4264 28.4227C18.3914 27.8201 18.333 25.8826 18.333 25.8826C18.333 23.4016 20.329 21.3813 22.7802 21.3813H25.0797C25.3015 19.6683 26.7372 18.3333 28.4881 18.3333H31.4996C33.2505 18.3333 34.6862 19.6683 34.908 21.3813ZM41.2695 30.951L41.2228 30.9747C38.8649 32.5578 36.0285 33.6092 33.052 34.0464C32.6318 34.1054 32.2116 33.8337 32.0949 33.4084C31.8381 32.4396 31.0093 31.8017 30.0172 31.8017H30.0055H29.9822C28.99 31.8017 28.1613 32.4396 27.9045 33.4084C27.7877 33.8337 27.3675 34.1054 26.9473 34.0464C23.9708 33.6092 21.1344 32.5578 18.7766 30.9747C18.7649 30.9628 18.6482 30.892 18.5548 30.951C18.4497 31.0101 18.4497 31.1519 18.4497 31.1519L18.5314 37.1772C18.5314 39.6582 20.5158 41.6666 22.967 41.6666H37.0207C39.4719 41.6666 41.4562 39.6582 41.4562 37.1772L41.5496 31.1519C41.5496 31.1519 41.5496 31.0101 41.4446 30.951C41.3862 30.9156 41.3162 30.9274 41.2695 30.951ZM30.8693 35.9012C30.8693 36.3974 30.4841 36.7873 29.9938 36.7873C29.5153 36.7873 29.1184 36.3974 29.1184 35.9012V34.3772C29.1184 33.8928 29.5153 33.4911 29.9938 33.4911C30.4841 33.4911 30.8693 33.8928 30.8693 34.3772V35.9012Z" fill="url(#paint0_linear_791_7922)"/>
<defs>
<linearGradient id="paint0_linear_791_7922" x1="41.6663" y1="41.6666" x2="13.9018" y2="33.6165" gradientUnits="userSpaceOnUse">
<stop stop-color="#12D18E"/>
<stop offset="1" stop-color="#71E3BB"/>
</linearGradient>
</defs>
</svg>
