<svg width="186" height="180" viewBox="0 0 186 180" fill="none" xmlns="http://www.w3.org/2000/svg">
<circle cx="95.5" cy="90.5" r="70.5" fill="url(#paint0_linear_503_12062)"/>
<circle cx="178.469" cy="27.5" r="7.5" fill="#71E3BB"/>
<circle cx="20.0352" cy="10" r="10" fill="#71E3BB"/>
<circle cx="10.0352" cy="133" r="5" fill="#71E3BB"/>
<circle cx="165.535" cy="160.5" r="2.5" fill="#71E3BB"/>
<path fill-rule="evenodd" clip-rule="evenodd" d="M84.8567 65.9165H106.17C114.504 65.9165 120.085 71.7673 120.085 80.4698V100.557C120.085 109.232 114.504 115.083 106.17 115.083H84.8567C76.523 115.083 70.918 109.232 70.918 100.557V80.4698C70.918 71.7673 76.523 65.9165 84.8567 65.9165ZM94.1001 97.8503L105.777 86.1732C106.613 85.3373 106.613 83.9853 105.777 83.1248C104.941 82.289 103.565 82.289 102.729 83.1248L92.5759 93.2778L88.2738 88.9757C87.438 88.1398 86.0613 88.1398 85.2255 88.9757C84.3896 89.8115 84.3896 91.1636 85.2255 92.024L91.0763 97.8503C91.4942 98.2682 92.0351 98.4648 92.5759 98.4648C93.1413 98.4648 93.6821 98.2682 94.1001 97.8503Z" fill="white"/>
<circle cx="106.535" cy="4.5" r="2.5" fill="#71E3BB"/>
<circle cx="62.5352" cy="176.5" r="3.5" fill="#71E3BB"/>
<circle cx="122.035" cy="171" r="1" fill="#71E3BB"/>
<circle cx="170.535" cy="110.5" r="2.5" fill="#71E3BB"/>
<circle cx="1.03516" cy="75" r="1" fill="#71E3BB"/>
<defs>
<linearGradient id="paint0_linear_503_12062" x1="166" y1="161" x2="-1.77734" y2="112.355" gradientUnits="userSpaceOnUse">
<stop stop-color="#12D18E"/>
<stop offset="1" stop-color="#71E3BB"/>
</linearGradient>
</defs>
</svg>
