<svg width="60" height="60" viewBox="0 0 60 60" fill="none" xmlns="http://www.w3.org/2000/svg">
<rect width="60" height="60" rx="30" fill="#FF5A5F" fill-opacity="0.08"/>
<path fill-rule="evenodd" clip-rule="evenodd" d="M24.947 18.3324H35.062C39.017 18.3324 41.6654 21.1091 41.6654 25.2391V34.7719C41.6654 38.8902 39.017 41.6657 35.062 41.6657H24.947C20.992 41.6657 18.332 38.8902 18.332 34.7719V25.2391C18.332 21.1091 20.992 18.3324 24.947 18.3324ZM29.987 26.5702C29.4387 26.5702 28.9837 26.1141 28.9837 25.5552C28.9837 24.9836 29.4387 24.5286 30.0104 24.5286C30.5704 24.5286 31.0254 24.9836 31.0254 25.5552C31.0254 26.1141 30.5704 26.5702 29.987 26.5702ZM31.0137 34.4102C31.0137 34.9702 30.5587 35.4252 29.987 35.4252C29.427 35.4252 28.972 34.9702 28.972 34.4102V29.2536C28.972 28.6924 29.427 28.2269 29.987 28.2269C30.5587 28.2269 31.0137 28.6924 31.0137 29.2536V34.4102Z" fill="url(#paint0_linear_1948_63269)"/>
<defs>
<linearGradient id="paint0_linear_1948_63269" x1="41.6654" y1="41.6657" x2="13.9008" y2="33.6157" gradientUnits="userSpaceOnUse">
<stop stop-color="#FF5A5F"/>
<stop offset="1" stop-color="#FF8A9B"/>
</linearGradient>
</defs>
</svg>
