<svg width="28" height="28" viewBox="0 0 28 28" fill="none" xmlns="http://www.w3.org/2000/svg">
<mask id="mask0_721_10140" style="mask-type:luminance" maskUnits="userSpaceOnUse" x="3" y="1" width="23" height="21">
<path fill-rule="evenodd" clip-rule="evenodd" d="M3.5 1.16666H25.0797V21.406H3.5V1.16666Z" fill="white"/>
</mask>
<g mask="url(#mask0_721_10140)">
<path fill-rule="evenodd" clip-rule="evenodd" d="M14.2882 2.91666C10.2107 2.91666 7.36868 6.11099 7.36868 8.97749C7.36868 11.403 6.69552 12.5242 6.10052 13.5135C5.62335 14.308 5.24652 14.9357 5.24652 16.2995C5.44135 18.4998 6.89385 19.656 14.2882 19.656C21.6417 19.656 23.1397 18.4485 23.3334 16.2237C23.3299 14.9357 22.953 14.308 22.4758 13.5135C21.8808 12.5242 21.2077 11.403 21.2077 8.97749C21.2077 6.11099 18.3657 2.91666 14.2882 2.91666M14.2882 21.406C8.83285 21.406 3.90252 21.021 3.50002 16.3742C3.49652 14.4515 4.08335 13.4738 4.60135 12.6128C5.12518 11.7402 5.61868 10.9177 5.61868 8.97749C5.61868 5.20566 9.10235 1.16666 14.2882 1.16666C19.474 1.16666 22.9577 5.20566 22.9577 8.97749C22.9577 10.9177 23.4512 11.7402 23.975 12.6128C24.493 13.4738 25.0799 14.4515 25.0799 16.2995C24.6727 21.021 19.7435 21.406 14.2882 21.406" fill="white"/>
</g>
<path fill-rule="evenodd" clip-rule="evenodd" d="M14.2312 26.25H14.2289C12.921 26.2488 11.6832 25.6725 10.744 24.626C10.4209 24.2678 10.45 23.7137 10.8094 23.3917C11.1687 23.0673 11.7217 23.0965 12.0449 23.457C12.6492 24.1302 13.425 24.5 14.23 24.5H14.2312C15.0397 24.5 15.819 24.1302 16.4245 23.4558C16.7489 23.0977 17.3019 23.0685 17.66 23.3917C18.0194 23.7148 18.0485 24.269 17.7254 24.6272C16.7827 25.6737 15.5425 26.25 14.2312 26.25" fill="white"/>
</svg>
