<svg width="60" height="60" viewBox="0 0 60 60" fill="none" xmlns="http://www.w3.org/2000/svg">
<rect width="60" height="60" rx="30" fill="#FF9800" fill-opacity="0.08"/>
<path fill-rule="evenodd" clip-rule="evenodd" d="M39.0532 30.0012C39.0532 30.9502 39.8325 31.7224 40.7904 31.7224C41.2734 31.7224 41.6654 32.1109 41.6654 32.5895V35.7118C41.6654 38.3521 39.4977 40.5 36.833 40.5H23.1655C20.5009 40.5 18.332 38.3521 18.332 35.7118V32.5895C18.332 32.1109 18.724 31.7224 19.207 31.7224C20.166 31.7224 20.9454 30.9502 20.9454 30.0012C20.9454 29.0764 20.1975 28.3804 19.207 28.3804C18.9749 28.3804 18.7532 28.2891 18.5887 28.1261C18.4242 27.9631 18.332 27.7423 18.332 27.5134L18.3344 24.2893C18.3344 21.649 20.502 19.5 23.1667 19.5H36.8307C39.4954 19.5 41.6642 21.649 41.6642 24.2893L41.6654 27.4129C41.6654 27.6417 41.5732 27.8637 41.4099 28.0255C41.2454 28.1885 41.0237 28.2799 40.7904 28.2799C39.8325 28.2799 39.0532 29.0521 39.0532 30.0012ZM32.626 30.756L34.0015 29.4289C34.2407 29.2 34.3235 28.8625 34.2197 28.5504C34.117 28.2382 33.8487 28.0163 33.5244 27.9712L31.6239 27.6961L30.7734 25.9898C30.6275 25.6962 30.3312 25.5135 30.001 25.5124H29.9987C29.6697 25.5124 29.3734 25.695 29.2252 25.9887L28.3747 27.6961L26.4777 27.9701C26.1499 28.0163 25.8815 28.2382 25.7777 28.5504C25.675 28.8625 25.7579 29.2 25.9959 29.4289L27.3714 30.756L27.047 32.6322C26.991 32.9559 27.1229 33.2773 27.3912 33.4703C27.5429 33.5778 27.719 33.6333 27.8975 33.6333C28.034 33.6333 28.1717 33.5998 28.2977 33.5339L29.9987 32.6484L31.6962 33.5316C31.9902 33.6877 32.339 33.6634 32.6062 33.4692C32.8757 33.2773 33.0075 32.9559 32.9515 32.6322L32.626 30.756Z" fill="url(#paint0_linear_1948_63256)"/>
<defs>
<linearGradient id="paint0_linear_1948_63256" x1="41.6654" y1="40.5" x2="14.3968" y2="31.7153" gradientUnits="userSpaceOnUse">
<stop stop-color="#FB9400"/>
<stop offset="1" stop-color="#FFAB38"/>
</linearGradient>
</defs>
</svg>
