<svg width="56" height="56" viewBox="0 0 56 56" fill="none" xmlns="http://www.w3.org/2000/svg">
<rect width="56" height="56" rx="28" fill="#FF5A5F" fill-opacity="0.08"/>
<path fill-rule="evenodd" clip-rule="evenodd" d="M34.7071 24.7963C34.7071 26.0523 35.039 26.7925 35.7695 27.6456C36.3231 28.2741 36.5 29.0808 36.5 29.956C36.5 30.8302 36.2128 31.6601 35.6373 32.3339C34.884 33.1417 33.8215 33.6573 32.7372 33.747C31.1659 33.8809 29.5937 33.9937 28.0005 33.9937C26.4063 33.9937 24.835 33.9263 23.2638 33.747C22.1785 33.6573 21.116 33.1417 20.3637 32.3339C19.7882 31.6601 19.5 30.8302 19.5 29.956C19.5 29.0808 19.6779 28.2741 20.2305 27.6456C20.9838 26.7925 21.2939 26.0523 21.2939 24.7963V24.3703C21.2939 22.6883 21.7133 21.5885 22.577 20.5119C23.8611 18.9417 25.9194 18 27.9558 18H28.0452C30.1254 18 32.2502 18.987 33.5125 20.6247C34.3314 21.6792 34.7071 22.7327 34.7071 24.3703V24.7963ZM25.0737 36.0608C25.0737 35.5573 25.5358 35.3266 25.9632 35.2279C26.4631 35.1222 29.5093 35.1222 30.0092 35.2279C30.4366 35.3266 30.8987 35.5573 30.8987 36.0608C30.8738 36.5402 30.5926 36.9653 30.204 37.2352C29.7001 37.628 29.1088 37.8767 28.4906 37.9664C28.1487 38.0107 27.8128 38.0117 27.4828 37.9664C26.8636 37.8767 26.2723 37.628 25.7694 37.2342C25.3798 36.9653 25.0985 36.5402 25.0737 36.0608Z" fill="url(#paint0_linear_1948_60048)"/>
<defs>
<linearGradient id="paint0_linear_1948_60048" x1="36.5" y1="38" x2="15.8267" y2="32.9051" gradientUnits="userSpaceOnUse">
<stop stop-color="#FF5A5F"/>
<stop offset="1" stop-color="#FF8A9B"/>
</linearGradient>
</defs>
</svg>
