<svg width="60" height="60" viewBox="0 0 60 60" fill="none" xmlns="http://www.w3.org/2000/svg">
<rect width="60" height="60" rx="30" fill="#6949FF" fill-opacity="0.08"/>
<path fill-rule="evenodd" clip-rule="evenodd" d="M36.7291 25.7788H41.6654C41.6654 21.8154 39.2905 19.5 35.2668 19.5H24.7305C20.7068 19.5 18.332 21.8154 18.332 25.7282V34.2718C18.332 38.1846 20.7068 40.5 24.7305 40.5H35.2668C39.2905 40.5 41.6654 38.1846 41.6654 34.2718V33.9078H36.7291C34.4381 33.9078 32.5809 32.0971 32.5809 29.8635C32.5809 27.6299 34.4381 25.8192 36.7291 25.8192V25.7788ZM36.7291 27.5178H40.7943C41.2754 27.5178 41.6654 27.8981 41.6654 28.3671V31.3195C41.6598 31.7862 41.273 32.1633 40.7943 32.1688H36.8224C35.6626 32.184 34.6484 31.4098 34.3854 30.3084C34.2536 29.6247 34.4386 28.9192 34.8906 28.3809C35.3427 27.8427 36.0156 27.5268 36.7291 27.5178ZM36.9054 30.6218H37.2891C37.7816 30.6218 38.1809 30.2325 38.1809 29.7523C38.1809 29.2721 37.7816 28.8828 37.2891 28.8828H36.9054C36.6698 28.8801 36.4429 28.9694 36.2753 29.1309C36.1078 29.2923 36.0135 29.5125 36.0135 29.7422C36.0135 30.2241 36.4111 30.6163 36.9054 30.6218ZM23.8594 25.7788H30.4446C30.9372 25.7788 31.3365 25.3895 31.3365 24.9092C31.3365 24.429 30.9372 24.0397 30.4446 24.0397H23.8594C23.3709 24.0397 22.9733 24.4229 22.9676 24.8991C22.9676 25.381 23.3652 25.7732 23.8594 25.7788Z" fill="url(#paint0_linear_1948_63293)"/>
<defs>
<linearGradient id="paint0_linear_1948_63293" x1="41.6654" y1="40.5" x2="14.3968" y2="31.7153" gradientUnits="userSpaceOnUse">
<stop stop-color="#6949FF"/>
<stop offset="1" stop-color="#876DFF"/>
</linearGradient>
</defs>
</svg>
