<svg width="60" height="60" viewBox="0 0 60 60" fill="none" xmlns="http://www.w3.org/2000/svg">
<rect width="60" height="60" rx="30" fill="#246BFD" fill-opacity="0.08"/>
<path fill-rule="evenodd" clip-rule="evenodd" d="M24.947 18.3332H35.062C39.017 18.3332 41.6654 21.1099 41.6654 25.2399V34.7727C41.6654 38.8899 39.017 41.6666 35.062 41.6666H24.947C20.992 41.6666 18.332 38.8899 18.332 34.7727V25.2399C18.332 21.1099 20.992 18.3332 24.947 18.3332ZM29.3337 33.4882L34.8754 27.9466C35.272 27.5499 35.272 26.9082 34.8754 26.4999C34.4787 26.1032 33.8254 26.1032 33.4287 26.4999L28.6104 31.3182L26.5687 29.2766C26.172 28.8799 25.5187 28.8799 25.122 29.2766C24.7254 29.6732 24.7254 30.3149 25.122 30.7232L27.8987 33.4882C28.097 33.6866 28.3537 33.7799 28.6104 33.7799C28.8787 33.7799 29.1354 33.6866 29.3337 33.4882Z" fill="url(#paint0_linear_1948_63243)"/>
<defs>
<linearGradient id="paint0_linear_1948_63243" x1="41.6654" y1="41.6666" x2="13.9008" y2="33.6165" gradientUnits="userSpaceOnUse">
<stop stop-color="#246BFD"/>
<stop offset="1" stop-color="#5089FD"/>
</linearGradient>
</defs>
</svg>
