<svg width="60" height="60" viewBox="0 0 60 60" fill="none" xmlns="http://www.w3.org/2000/svg">
<rect width="60" height="60" rx="30" fill="#246BFD" fill-opacity="0.08"/>
<path fill-rule="evenodd" clip-rule="evenodd" d="M28.4871 20.1055C27.7051 20.1055 27.0397 20.6489 26.853 21.3814H33.1328C32.946 20.6489 32.2807 20.1055 31.4986 20.1055H28.4871ZM34.907 21.3814H37.2181C39.6694 21.3814 41.6654 23.4017 41.6654 25.8827C41.6654 25.8827 41.5953 26.933 41.572 28.3956C41.5696 28.5113 41.5136 28.6248 41.4214 28.6933C40.86 29.108 40.3464 29.4506 40.2997 29.4742C38.362 30.7738 36.1104 31.6882 33.7117 32.1431C33.5553 32.1738 33.4012 32.0923 33.3219 31.9528C32.6495 30.788 31.3936 30.0295 29.9929 30.0295C28.6015 30.0295 27.3339 30.7797 26.6417 31.9458C26.5611 32.0828 26.4094 32.162 26.2542 32.1324C23.8753 31.6764 21.6237 30.7631 19.6977 29.486L18.5772 28.7063C18.4838 28.6472 18.4254 28.5409 18.4254 28.4227C18.3904 27.8202 18.332 25.8827 18.332 25.8827C18.332 23.4017 20.328 21.3814 22.7793 21.3814H25.0787C25.3005 19.6684 26.7362 18.3333 28.4871 18.3333H31.4986C33.2495 18.3333 34.6852 19.6684 34.907 21.3814ZM41.2685 30.9511L41.2218 30.9747C38.864 32.5579 36.0275 33.6093 33.0511 34.0465C32.6308 34.1055 32.2106 33.8338 32.0939 33.4085C31.8371 32.4397 31.0084 31.8017 30.0162 31.8017H30.0045H29.9812C28.989 31.8017 28.1603 32.4397 27.9035 33.4085C27.7868 33.8338 27.3665 34.1055 26.9463 34.0465C23.9699 33.6093 21.1334 32.5579 18.7756 30.9747C18.7639 30.9629 18.6472 30.892 18.5538 30.9511C18.4488 31.0102 18.4488 31.152 18.4488 31.152L18.5305 37.1772C18.5305 39.6582 20.5148 41.6667 22.966 41.6667H37.0197C39.4709 41.6667 41.4553 39.6582 41.4553 37.1772L41.5486 31.152C41.5486 31.152 41.5486 31.0102 41.4436 30.9511C41.3852 30.9157 41.3152 30.9275 41.2685 30.9511ZM30.8683 35.9013C30.8683 36.3975 30.4831 36.7874 29.9929 36.7874C29.5143 36.7874 29.1174 36.3975 29.1174 35.9013V34.3773C29.1174 33.8929 29.5143 33.4912 29.9929 33.4912C30.4831 33.4912 30.8683 33.8929 30.8683 34.3773V35.9013Z" fill="url(#paint0_linear_1948_63281)"/>
<defs>
<linearGradient id="paint0_linear_1948_63281" x1="41.6654" y1="41.6667" x2="13.9008" y2="33.6166" gradientUnits="userSpaceOnUse">
<stop stop-color="#246BFD"/>
<stop offset="1" stop-color="#5089FD"/>
</linearGradient>
</defs>
</svg>
