<svg width="76" height="76" viewBox="0 0 76 76" fill="none" xmlns="http://www.w3.org/2000/svg">
<rect width="76" height="76" rx="38" fill="#246BFD" fill-opacity="0.08"/>
<path fill-rule="evenodd" clip-rule="evenodd" d="M46.6533 32.5727H53C53 27.4769 49.9467 24.5 44.7733 24.5H31.2267C26.0533 24.5 23 27.4769 23 32.5077V43.4923C23 48.5231 26.0533 51.5 31.2267 51.5H44.7733C49.9467 51.5 53 48.5231 53 43.4923V43.0243H46.6533C43.7078 43.0243 41.32 40.6963 41.32 37.8245C41.32 34.9527 43.7078 32.6247 46.6533 32.6247V32.5727ZM46.6533 34.8086H51.88C52.4986 34.8086 53 35.2975 53 35.9006V39.6964C52.9928 40.2966 52.4956 40.7814 51.88 40.7884H46.7733C45.2822 40.808 43.9782 39.8126 43.64 38.3965C43.4706 37.5174 43.7084 36.6103 44.2896 35.9183C44.8708 35.2263 45.736 34.8201 46.6533 34.8086ZM46.88 38.7995H47.3733C48.0066 38.7995 48.52 38.2989 48.52 37.6815C48.52 37.0641 48.0066 36.5636 47.3733 36.5636H46.88C46.5771 36.5601 46.2854 36.675 46.07 36.8826C45.8545 37.0902 45.7333 37.3732 45.7333 37.6685C45.7333 38.2881 46.2446 38.7923 46.88 38.7995ZM30.1067 32.5727H38.5733C39.2066 32.5727 39.72 32.0722 39.72 31.4547C39.72 30.8373 39.2066 30.3368 38.5733 30.3368H30.1067C29.4786 30.3367 28.9673 30.8294 28.96 31.4417C28.96 32.0613 29.4712 32.5656 30.1067 32.5727Z" fill="url(#paint0_linear_574_16579)"/>
<defs>
<linearGradient id="paint0_linear_574_16579" x1="53" y1="51.5" x2="17.9404" y2="40.2053" gradientUnits="userSpaceOnUse">
<stop stop-color="#246BFD"/>
<stop offset="1" stop-color="#5089FD"/>
</linearGradient>
</defs>
</svg>
