<svg width="60" height="60" viewBox="0 0 60 60" fill="none" xmlns="http://www.w3.org/2000/svg">
<rect width="60" height="60" rx="30" fill="#1BAC4B" fill-opacity="0.08"/>
<path fill-rule="evenodd" clip-rule="evenodd" d="M36.73 25.7788H41.6663C41.6663 21.8154 39.2915 19.5 35.2678 19.5H24.7315C20.7078 19.5 18.333 21.8154 18.333 25.7282V34.2718C18.333 38.1846 20.7078 40.5 24.7315 40.5H35.2678C39.2915 40.5 41.6663 38.1846 41.6663 34.2718V33.9078H36.73C34.4391 33.9078 32.5819 32.0971 32.5819 29.8635C32.5819 27.6299 34.4391 25.8192 36.73 25.8192V25.7788ZM36.73 27.5178H40.7952C41.2763 27.5178 41.6663 27.8981 41.6663 28.3671V31.3195C41.6607 31.7862 41.274 32.1633 40.7952 32.1688H36.8234C35.6636 32.184 34.6494 31.4098 34.3863 30.3084C34.2546 29.6247 34.4395 28.9192 34.8916 28.3809C35.3436 27.8427 36.0166 27.5268 36.73 27.5178ZM36.9063 30.6218H37.29C37.7826 30.6218 38.1819 30.2325 38.1819 29.7523C38.1819 29.2721 37.7826 28.8828 37.29 28.8828H36.9063C36.6708 28.8801 36.4439 28.9694 36.2763 29.1309C36.1088 29.2923 36.0145 29.5125 36.0145 29.7422C36.0145 30.2241 36.4121 30.6163 36.9063 30.6218ZM23.8604 25.7788H30.4456C30.9382 25.7788 31.3375 25.3895 31.3375 24.9092C31.3375 24.429 30.9382 24.0397 30.4456 24.0397H23.8604C23.3719 24.0397 22.9742 24.4229 22.9686 24.8991C22.9685 25.381 23.3662 25.7732 23.8604 25.7788Z" fill="url(#paint0_linear_791_7937)"/>
<defs>
<linearGradient id="paint0_linear_791_7937" x1="41.6663" y1="40.5" x2="14.3978" y2="31.7153" gradientUnits="userSpaceOnUse">
<stop stop-color="#12D18E"/>
<stop offset="1" stop-color="#71E3BB"/>
</linearGradient>
</defs>
</svg>
