<svg width="56" height="56" viewBox="0 0 56 56" fill="none" xmlns="http://www.w3.org/2000/svg">
<rect width="56" height="56" rx="28" fill="#1BAC4B" fill-opacity="0.08"/>
<path fill-rule="evenodd" clip-rule="evenodd" d="M27.7281 37.9137C27.8388 37.9715 27.9627 38.0009 28.0865 38C28.2103 37.999 28.3331 37.9686 28.4449 37.9097L32.0128 36.0025C33.0245 35.4631 33.8168 34.8601 34.435 34.1579C35.779 32.6282 36.5129 30.6758 36.4998 28.6626L36.4575 22.022C36.4535 21.2571 35.9511 20.5746 35.2082 20.3265L28.5707 18.0996C28.1711 17.9642 27.7331 17.9672 27.3405 18.1064L20.7282 20.4128C19.9893 20.6707 19.496 21.3581 19.5 22.124L19.5423 28.7597C19.5554 30.7758 20.3145 32.7194 21.6806 34.2335C22.3048 34.9258 23.1041 35.52 24.127 36.0505L27.7281 37.9137ZM26.7836 30.1089C26.9326 30.2521 27.1259 30.3227 27.3192 30.3207C27.5125 30.3198 27.7047 30.2472 27.8517 30.1021L31.7508 26.2581C32.0438 25.9688 32.0408 25.504 31.7448 25.2187C31.4478 24.9333 30.9696 24.9353 30.6766 25.2245L27.3081 28.5449L25.9289 27.2191C25.6319 26.9337 25.1547 26.9367 24.8607 27.226C24.5677 27.5152 24.5708 27.98 24.8678 28.2654L26.7836 30.1089Z" fill="url(#paint0_linear_1948_60053)"/>
<defs>
<linearGradient id="paint0_linear_1948_60053" x1="36.5" y1="38" x2="15.8267" y2="32.9051" gradientUnits="userSpaceOnUse">
<stop stop-color="#12D18E"/>
<stop offset="1" stop-color="#71E3BB"/>
</linearGradient>
</defs>
</svg>
