<svg width="60" height="60" viewBox="0 0 60 60" fill="none" xmlns="http://www.w3.org/2000/svg">
<rect width="60" height="60" rx="30" fill="#246BFD" fill-opacity="0.08"/>
<path fill-rule="evenodd" clip-rule="evenodd" d="M21.2963 18.3333H25.2397C26.8847 18.3333 28.203 19.6749 28.203 21.3211V25.2983C28.203 26.9549 26.8847 28.2849 25.2397 28.2849H21.2963C19.663 28.2849 18.333 26.9549 18.333 25.2983V21.3211C18.333 19.6749 19.663 18.3333 21.2963 18.3333ZM21.2963 31.7146H25.2397C26.8847 31.7146 28.203 33.0457 28.203 34.7024V38.6796C28.203 40.3246 26.8847 41.6662 25.2397 41.6662H21.2963C19.663 41.6662 18.333 40.3246 18.333 38.6796V34.7024C18.333 33.0457 19.663 31.7146 21.2963 31.7146ZM38.7031 18.3333H34.7598C33.1148 18.3333 31.7965 19.6749 31.7965 21.3211V25.2983C31.7965 26.9549 33.1148 28.2849 34.7598 28.2849H38.7031C40.3365 28.2849 41.6665 26.9549 41.6665 25.2983V21.3211C41.6665 19.6749 40.3365 18.3333 38.7031 18.3333ZM34.7598 31.7146H38.7031C40.3365 31.7146 41.6665 33.0457 41.6665 34.7024V38.6796C41.6665 40.3246 40.3365 41.6662 38.7031 41.6662H34.7598C33.1148 41.6662 31.7965 40.3246 31.7965 38.6796V34.7024C31.7965 33.0457 33.1148 31.7146 34.7598 31.7146Z" fill="url(#paint0_linear_791_10375)"/>
<defs>
<linearGradient id="paint0_linear_791_10375" x1="41.6665" y1="41.6662" x2="13.9018" y2="33.616" gradientUnits="userSpaceOnUse">
<stop stop-color="#246BFD"/>
<stop offset="1" stop-color="#5089FD"/>
</linearGradient>
</defs>
</svg>
