<svg width="60" height="60" viewBox="0 0 60 60" fill="none" xmlns="http://www.w3.org/2000/svg">
<rect width="60" height="60" rx="30" fill="#246BFD" fill-opacity="0.08"/>
<path fill-rule="evenodd" clip-rule="evenodd" d="M24.948 18.3333H35.063C39.018 18.3333 41.6663 21.1099 41.6663 25.2399V34.7728C41.6663 38.8899 39.018 41.6666 35.063 41.6666H24.948C20.993 41.6666 18.333 38.8899 18.333 34.7728V25.2399C18.333 21.1099 20.993 18.3333 24.948 18.3333ZM29.3347 33.4883L34.8763 27.9466C35.273 27.5499 35.273 26.9083 34.8763 26.4999C34.4797 26.1033 33.8263 26.1033 33.4297 26.4999L28.6113 31.3183L26.5697 29.2766C26.173 28.8799 25.5197 28.8799 25.123 29.2766C24.7263 29.6733 24.7263 30.3149 25.123 30.7233L27.8997 33.4883C28.098 33.6866 28.3547 33.7799 28.6113 33.7799C28.8797 33.7799 29.1363 33.6866 29.3347 33.4883Z" fill="url(#paint0_linear_791_3269)"/>
<defs>
<linearGradient id="paint0_linear_791_3269" x1="41.6663" y1="41.6666" x2="13.9018" y2="33.6165" gradientUnits="userSpaceOnUse">
<stop stop-color="#246BFD"/>
<stop offset="1" stop-color="#5089FD"/>
</linearGradient>
</defs>
</svg>
