<svg width="21" height="20" viewBox="0 0 21 20" fill="none" xmlns="http://www.w3.org/2000/svg">
<path fill-rule="evenodd" clip-rule="evenodd" d="M18.8337 6.59984V13.4082C18.8337 16.3498 16.9412 18.3332 14.117 18.3332H6.89199C4.06699 18.3332 2.16699 16.3498 2.16699 13.4082V6.59984C2.16699 3.64984 4.06699 1.6665 6.89199 1.6665H14.117C16.9412 1.6665 18.8337 3.64984 18.8337 6.59984ZM9.87533 8.10817V13.3998C9.87533 13.7498 10.1587 14.0248 10.5003 14.0248C10.8503 14.0248 11.1253 13.7498 11.1253 13.3998V8.10817L13.1837 10.1748C13.3003 10.2915 13.467 10.3582 13.6253 10.3582C13.7828 10.3582 13.942 10.2915 14.067 10.1748C14.3087 9.93317 14.3087 9.53317 14.067 9.2915L10.942 6.14984C10.7087 5.9165 10.292 5.9165 10.0587 6.14984L6.93366 9.2915C6.69199 9.53317 6.69199 9.93317 6.93366 10.1748C7.18366 10.4165 7.57533 10.4165 7.82533 10.1748L9.87533 8.10817Z" fill="url(#paint0_linear_791_389)"/>
<defs>
<linearGradient id="paint0_linear_791_389" x1="18.8337" y1="18.3332" x2="-0.998178" y2="12.5831" gradientUnits="userSpaceOnUse">
<stop stop-color="#12D18E"/>
<stop offset="1" stop-color="#71E3BB"/>
</linearGradient>
</defs>
</svg>
