<svg width="28" height="28" viewBox="0 0 28 28" fill="none" xmlns="http://www.w3.org/2000/svg">
<path d="M20.9076 2.74593C20.9076 3.23151 20.514 3.62515 20.0284 3.62515C19.5428 3.62515 19.1492 3.23151 19.1492 2.74593C19.1492 2.26034 19.5428 1.8667 20.0284 1.8667C20.514 1.8667 20.9076 2.26034 20.9076 2.74593Z" fill="white"/>
<path d="M18.0355 4.73884C18.0355 5.71001 17.2482 6.49729 16.277 6.49729C15.3059 6.49729 14.5186 5.71001 14.5186 4.73884C14.5186 3.76767 15.3059 2.98039 16.277 2.98039C17.2482 2.98039 18.0355 3.76767 18.0355 4.73884Z" fill="white"/>
<path fill-rule="evenodd" clip-rule="evenodd" d="M15.1586 8.94983C14.9595 8.88745 14.8411 8.6815 14.8603 8.47382C14.8669 8.40202 14.8703 8.32928 14.8703 8.25575C14.8703 6.96086 13.8206 5.91114 12.5257 5.91114C11.2308 5.91114 10.1811 6.96086 10.1811 8.25575C10.1811 8.58517 9.99775 8.91116 9.68596 9.0175C6.22359 10.1984 3.7334 13.4789 3.7334 17.3411C3.7334 22.1969 7.66983 26.1334 12.5257 26.1334C17.3815 26.1334 21.3179 22.1969 21.3179 17.3411C21.3179 16.8038 21.7426 16.3445 22.2257 16.1093C23.007 15.7289 23.5453 14.9274 23.5453 14C23.5453 12.7051 22.4956 11.6554 21.2007 11.6554C20.7582 11.6554 20.3443 11.778 19.9911 11.9911C19.8107 12.1 19.5686 12.0728 19.4382 11.9072C19.309 11.743 19.3379 11.504 19.4835 11.3541C19.8933 10.9319 20.1456 10.356 20.1456 9.72113C20.1456 8.42624 19.0959 7.37652 17.801 7.37652C16.8725 7.37652 16.07 7.91628 15.6903 8.69914C15.5939 8.89779 15.3692 9.01587 15.1586 8.94983ZM12.5257 22.6165C9.61217 22.6165 7.25031 20.2546 7.25031 17.3411C7.25031 14.4276 9.61217 12.0657 12.5257 12.0657C15.4392 12.0657 17.801 14.4276 17.801 17.3411C17.801 20.2546 15.4392 22.6165 12.5257 22.6165Z" fill="white"/>
<path d="M20.5559 7.25929C21.2034 7.25929 21.7282 6.73443 21.7282 6.08699C21.7282 5.43954 21.2034 4.91469 20.5559 4.91469C19.9085 4.91469 19.3836 5.43954 19.3836 6.08699C19.3836 6.73443 19.9085 7.25929 20.5559 7.25929Z" fill="white"/>
<path d="M23.2522 5.7353C23.576 5.7353 23.8384 5.47287 23.8384 5.14915C23.8384 4.82542 23.576 4.56299 23.2522 4.56299C22.9285 4.56299 22.6661 4.82542 22.6661 5.14915C22.6661 5.47287 22.9285 5.7353 23.2522 5.7353Z" fill="white"/>
<path d="M23.2522 2.45285C23.2522 2.61471 23.121 2.74593 22.9592 2.74593C22.7973 2.74593 22.6661 2.61471 22.6661 2.45285C22.6661 2.29099 22.7973 2.15977 22.9592 2.15977C23.121 2.15977 23.2522 2.29099 23.2522 2.45285Z" fill="white"/>
<path d="M22.6661 11.0107C23.4754 11.0107 24.1315 10.3546 24.1315 9.54528C24.1315 8.73597 23.4754 8.0799 22.6661 8.0799C21.8568 8.0799 21.2007 8.73597 21.2007 9.54528C21.2007 10.3546 21.8568 11.0107 22.6661 11.0107Z" fill="white"/>
</svg>
