<svg width="76" height="76" viewBox="0 0 76 76" fill="none" xmlns="http://www.w3.org/2000/svg">
<rect width="76" height="76" rx="38" fill="#FF5A5F" fill-opacity="0.08"/>
<path fill-rule="evenodd" clip-rule="evenodd" d="M32.6987 27.8544C32.3641 28.3063 32.4026 28.9509 32.8253 29.36C33.2753 29.81 34.0103 29.81 34.4603 29.36L36.8453 26.96V33.17H39.1553V26.96L41.5403 29.36L41.6697 29.4716C42.1216 29.8063 42.7662 29.7691 43.1753 29.36C43.4003 29.135 43.5203 28.835 43.5203 28.535C43.5203 28.25 43.4003 27.95 43.1753 27.725L38.8103 23.345L38.6742 23.2227C38.4803 23.0768 38.2403 23 38.0003 23C37.6853 23 37.4003 23.12 37.1753 23.345L32.8103 27.725L32.6987 27.8544ZM29.3467 33.1777C25.8169 33.3444 23 36.3138 23 39.9312V47.3789L23.0073 47.6976C23.1711 51.2899 26.0904 54.1703 29.675 54.1703H46.34L46.6533 54.1629C50.1831 53.9962 53 51.0264 53 47.3941V39.9617L52.9927 39.6417C52.828 36.0363 49.895 33.1703 46.325 33.1703H39.155V42.3273L39.1443 42.4883C39.0668 43.0664 38.5775 43.5024 38 43.5024C37.355 43.5024 36.845 42.9835 36.845 42.3273V33.1703H29.66L29.3467 33.1777Z" fill="url(#paint0_linear_574_13153)"/>
<defs>
<linearGradient id="paint0_linear_574_13153" x1="53" y1="54.1703" x2="17.0976" y2="44.1515" gradientUnits="userSpaceOnUse">
<stop stop-color="#FF5A5F"/>
<stop offset="1" stop-color="#FF8A9B"/>
</linearGradient>
</defs>
</svg>
